<svg enable-background="new 0 0 1667.6 540.4" height="540.4" viewBox="0 0 1667.6 540.4" width="1667.6" xmlns="http://www.w3.org/2000/svg"><path d="m938.9 266.1c-1.8-1.9-1.2-3.5-.8-5.9.2-1.1.1-2.3-.6-3.3-1.5-2-4-1.2-5.1.7-1.3 2.1-3 5.6-2.7 8.1.3 2.8 2.8 4.5 5 5.8 1.7 1 3.2-1.6 1.5-2.6-1.8-1.1-4-2.3-3.4-4.8.2-.9.8-1.9 1.1-2.8.3-.6.9-3.2 1-1.7.2 1.5-.6 2.9-.3 4.5.3 1.5 1 2.7 2.1 3.9 1.4 1.7 3.5-.5 2.2-1.9z" fill="#c8c8c8"/><g stroke-miterlimit="10" stroke-width="1.5"><g stroke="#415364" stroke-linecap="round" stroke-linejoin="round"><path d="m492.4 87.6h11.4v54.6h-11.4z" fill="#e5e5e5"/><circle cx="498.1" cy="76.4" fill="#e5e5e5" r="6.7"/><path d="m495.9 83.1h4.5v4.5h-4.5z" fill="none"/><g fill="#e5e5e5"><path d="m501.1 101.7 6.9-1.3c1.1-.2 2.1.4 2.4 1.5l.1.3c.2 1.1-.4 2.1-1.5 2.4l-20.8 4.7c-1.1.2-2.1-.4-2.4-1.5l-.1-.3c-.2-1.1.4-2.1 1.5-2.4l8.8-2"/><path d="m505 94.6h-13.8c-1 0-1.8-.8-1.8-1.8s.8-1.8 1.8-1.8h13.8c1 0 1.8.8 1.8 1.8s-.8 1.8-1.8 1.8z"/><path d="m509 114.9-20.8 4.7c-1.1.2-2.1-.4-2.4-1.5l-.1-.3c-.2-1.1.4-2.1 1.5-2.4l20.8-4.7c1.1-.2 2.1.4 2.4 1.5l.1.3c.2 1.1-.4 2.2-1.5 2.4z"/><path d="m509 125.4-20.8 4.7c-1.1.2-2.1-.4-2.4-1.5l-.1-.3c-.2-1.1.4-2.1 1.5-2.4l20.8-4.7c1.1-.2 2.1.4 2.4 1.5l.1.3c.2 1-.4 2.1-1.5 2.4z"/></g></g><circle cx="498.1" cy="76.4" fill="none" r="3" stroke="#037dae"/><circle cx="498.1" cy="154.1" fill="#e5e5e5" r="6.7" stroke="#415364" stroke-linecap="round" stroke-linejoin="round"/><path d="m495.9 142.9h4.5v4.5h-4.5z" fill="none" stroke="#415364" stroke-linecap="round" stroke-linejoin="round"/><path d="m505 134.9h-13.8c-1 0-1.8.8-1.8 1.8s.8 1.8 1.8 1.8h13.8c1 0 1.8-.8 1.8-1.8s-.8-1.8-1.8-1.8z" fill="#e5e5e5" stroke="#415364" stroke-linecap="round" stroke-linejoin="round"/><circle cx="498.1" cy="154.1" fill="none" r="3" stroke="#037dae"/><g stroke="#415364" stroke-linecap="round" stroke-linejoin="round"><path d="m1056.8 87.5h11.4v54.6h-11.4z" fill="#e5e5e5"/><circle cx="1062.5" cy="76.3" fill="#e5e5e5" r="6.7"/><path d="m1060.3 83h4.5v4.5h-4.5z" fill="none"/><path d="m1065.5 101.6 6.9-1.3c1.1-.2 2.1.4 2.4 1.5l.1.3c.2 1.1-.4 2.1-1.5 2.4l-20.8 4.7c-1.1.2-2.1-.4-2.4-1.5l-.1-.3c-.2-1.1.4-2.1 1.5-2.4l8.8-2" fill="#e5e5e5"/><path d="m1069.4 94.5h-13.8c-1 0-1.8-.8-1.8-1.8s.8-1.8 1.8-1.8h13.8c1 0 1.8.8 1.8 1.8s-.8 1.8-1.8 1.8z" fill="#e5e5e5"/><path d="m1073.4 114.8-20.8 4.7c-1.1.2-2.1-.4-2.4-1.5l-.1-.3c-.2-1.1.4-2.1 1.5-2.4l20.8-4.7c1.1-.2 2.1.4 2.4 1.5l.1.3c.2 1.1-.5 2.2-1.5 2.4z" fill="#e5e5e5"/><path d="m1073.4 125.3-20.8 4.7c-1.1.2-2.1-.4-2.4-1.5l-.1-.3c-.2-1.1.4-2.1 1.5-2.4l20.8-4.7c1.1-.2 2.1.4 2.4 1.5l.1.3c.2 1-.5 2.1-1.5 2.4z" fill="#e5e5e5"/></g><circle cx="1062.5" cy="76.3" fill="none" r="3" stroke="#037dae"/><circle cx="1062.5" cy="154" fill="#e5e5e5" r="6.7" stroke="#415364" stroke-linecap="round" stroke-linejoin="round"/><path d="m1060.3 142.8h4.5v4.5h-4.5z" fill="none" stroke="#415364" stroke-linecap="round" stroke-linejoin="round"/><path d="m1069.4 134.8h-13.8c-1 0-1.8.8-1.8 1.8s.8 1.8 1.8 1.8h13.8c1 0 1.8-.8 1.8-1.8 0-.9-.8-1.8-1.8-1.8z" fill="#e5e5e5" stroke="#415364" stroke-linecap="round" stroke-linejoin="round"/><circle cx="1062.5" cy="154" fill="none" r="3" stroke="#037dae"/></g><ellipse cx="219.4" cy="314" fill="#fff" rx="64.8" ry="52.2"/><path d="m219.4 367.2c-36.3 0-65.9-23.9-65.9-53.3s29.5-53.3 65.9-53.3 65.9 23.9 65.9 53.3-29.6 53.3-65.9 53.3zm0-104.3c-35.1 0-63.7 22.9-63.7 51.1s28.6 51.1 63.7 51.1 63.7-22.9 63.7-51.1-28.6-51.1-63.7-51.1z" fill="#097dae"/><path d="m238.4 321.5c-.6 0-1 .4-1 .9 0 .6-.6 1.1-1.3 1.1s-1.3-.5-1.3-1.1c0-.5-.5-.9-1-.9-.6 0-1 .4-1 .9 0 1.6 1.5 2.9 3.3 2.9s3.3-1.3 3.3-2.9c0-.5-.5-.9-1-.9z" fill="#415364" stroke="#fff" stroke-miterlimit="10" stroke-width=".5"/><path d="m247.9 321.7-2.9-.8c-.4-.1-.7-.4-.8-.7-.6-1.7-1.5-3.3-2.7-4.7-.5-.7-1.1-1.3-1.8-1.9.4-1.6.7-3.5.6-5 0-2.3-.6-3.6-1.6-4.1-.6-.3-2.2-1-11.3 2.6-.2.1-.4.2-.6.3-.6-.1-1.2-.3-1.9-.4-.1 0-.2 0-.2 0 .7-1.4 1.2-2.9 1.2-4.5 0-.5-.4-.9-1-.9s-1 .4-1.1.8c-.1 2.6-1.4 5-3.5 6.9-1.3 1.1-2.7 1.9-4.3 2.4-2.7-.3-5.5-.3-8.2 0-1.6-.5-3-1.3-4.3-2.4-2.2-2-3.5-4.6-3.5-7.3 0-2.8 1.2-5.4 3.5-7.3 2.2-2 5.2-3 8.4-3s6.1 1.1 8.4 3c.9.8 1.6 1.7 2.2 2.7.3.4.9.6 1.4.4s.7-.8.5-1.2c-.7-1.2-1.5-2.2-2.6-3.1-2.6-2.3-6.1-3.6-9.8-3.6s-7.2 1.3-9.8 3.6-4.1 5.3-4.1 8.6c0 3.2 1.4 6.3 4.1 8.6.8.7 1.6 1.2 2.5 1.7-.6.1-1.3.3-1.9.5-.5.2-.8.7-.6 1.1.2.5.8.7 1.3.6 5.6-1.6 11.7-1.6 17.2 0h.3c.4 0 .8-.2 1-.6.2-.5-.1-1-.6-1.1-.6-.2-1.2-.3-1.9-.5.9-.5 1.7-1 2.5-1.7.7-.6 1.3-1.2 1.8-1.9.3 0 .6.1.8.1.4.1.7.1 1.1.2v.1c-.5 2.1-.5 3.9.1 5.4.5 1.4 1.4 2.5 2.7 3.3 1.5 1 3.4 1.4 5 1.4 1.2 0 2.4-.2 3.2-.7 1-.5 1.8-1.5 2.4-3 .3.3.6.6.8.9 1.1 1.3 1.9 2.7 2.4 4.2.3.9 1.1 1.6 2.1 1.8l2.9.8c.8.2 1.3.8 1.3 1.5v4.2c0 .7-.5 1.3-1.3 1.5l-4.6 1.3c-.7.2-1.4.7-1.8 1.2-1.8 2.7-4.7 5-8.5 6.7-.4.2-.7.6-.8 1l-1.5 6.8c0 .2-.2.3-.4.3h-4.8c-.2 0-.4-.1-.4-.3l-.8-3.8c-.2-.7-1-1.2-1.8-1.1-2.1.3-4.2.4-6.3.4-1.6 0-3.2-.1-4.7-.2-.8-.1-1.6.4-1.8 1.1l-.8 3.6c0 .2-.2.3-.4.3h-4.8c-.2 0-.4-.1-.5-.3l-1.4-6.5c-.1-.4-.4-.8-.8-1-6.5-3-9.9-8.1-9.9-14.6 0-3.3.8-6.2 2.5-8.7 1.5-2.3 3.8-4.2 6.6-5.6.5-.2.7-.8.4-1.2s-.9-.6-1.4-.3c-5.6 2.8-8.9 7.1-9.8 12.7-.1 0-.2 0-.3 0 0-.6-.1-1.2-.4-1.8-.6-1.3-1.8-2.2-3.1-2.4-1-.1-2 .3-2.7 1-1 1.1-.8 2-.5 2.6.5.9 1.8 1.6 4 2-.1.1-.1.2-.2.2-1.3 1.4-2.8 1.7-3.8 1.8-.6 0-1 .4-1 .9s.5.9 1 .9h.2c1.3 0 3.3-.4 5.2-2.5.3-.3.6-.7.7-1.1h.6c0 .5-.1 1-.1 1.5 0 3.7 1 7 3 9.8 1.8 2.6 4.5 4.7 7.8 6.3l1.4 6.3c.2 1 1.3 1.8 2.5 1.8h4.8c1.2 0 2.2-.7 2.5-1.8l.7-3.3c1.5.1 3 .2 4.5.2 2.1 0 4.2-.1 6.2-.4l.7 3.4c.2 1 1.3 1.8 2.5 1.8h4.8c1.2 0 2.2-.7 2.5-1.8l1.4-6.7c4.1-1.9 7.1-4.4 9.1-7.3.1-.2.4-.4.6-.4l4.6-1.3c1.6-.4 2.7-1.7 2.7-3.2v-3.9c-.1-1.5-1.2-2.8-2.8-3.2zm-9.7-10.6c-.4 2.9-1.4 5.4-2.5 6-1.2.6-4 .7-6.1-.6s-2.8-3.7-2-6.9c.1-.3.3-.6.7-.7 5.1-2 8-2.7 9.1-2.7h.4c.4.2.8 2 .4 4.9zm-54.7 9.9c-.1-.2.1-.5.3-.7.2-.3.5-.3.7-.3h.1c.5.1 1.1.5 1.5 1.3.1.2.2.5.2.8-1.5-.3-2.6-.7-2.8-1.1z" fill="#415364" stroke="#fff" stroke-miterlimit="10" stroke-width=".25"/><path d="m213.1 301v-3.2c1.3.1 1.7.6 2.2.6s.8-.6.8-.9c0-.8-1.7-1.1-2.9-1.1v-.5c0-.2-.3-.4-.5-.4-.3 0-.5.2-.5.4v.5c-1.7.2-3.4.9-3.4 2.9s1.8 2.6 3.4 3.1v3.7c-1.8-.1-2.3-1.2-2.9-1.2-.4 0-.8.5-.8.9 0 .8 1.5 1.8 3.7 1.9v.5c0 .2.2.4.5.4s.5-.2.5-.4v-.5c1.9-.2 3.3-1.3 3.3-3.2-.1-2.3-1.8-3-3.4-3.5zm-.9-.3c-1-.3-1.7-.6-1.7-1.5 0-.8.7-1.2 1.7-1.3zm.8 5.3v-3.3c.9.3 1.6.8 1.6 1.8 0 .9-.6 1.4-1.6 1.5z" fill="#097dae"/><g stroke-width="2"><path d="m1624.7 248.5s-7-13.9-3.6-24.3 17.3-17.4 17.3-17.4l3.5 6.9-6.9 3.5 3.5 6.9-6.9 3.5 3.5 6.9-6.9 3.5 3.5 6.9z" fill="#fff" stroke="#30b381" stroke-miterlimit="10"/><path d="m1628.5 248.4s.2 66.2-12.5 87.2l-11-.9s20.4-48 12.5-87.2z" fill="none" stroke="#037dae"/><path d="m1606.3 336.1s8-6 16.1-6 16.1 6 16.1 6" fill="none" stroke="#037dae" stroke-miterlimit="10"/><path d="m1585 236.4s28 57.5 20.2 97.8l-8.6-2.2s4-49.8-22.3-93.2z" fill="none" stroke="#037dae"/><path d="m1577.2 236.6s3.6-15.1 13-20.9 24.5-2.2 24.5-2.2l-1.8 7.6-7.6-1.8-1.8 7.6-7.6-1.8-1.8 7.6-7.6-1.8-1.8 7.6z" fill="#fff" stroke="#30b381" stroke-miterlimit="10"/><path d="m1577.2 236.6s-4.9-14.7-14.8-19.6c-9.8-4.9-24.6.1-24.6.1l2.5 7.4 7.4-2.5 2.5 7.4 7.4-2.5 2.5 7.4 7.4-2.5 2.5 7.4z" fill="#fff" stroke="#30b381" stroke-miterlimit="10"/><path d="m1575.7 239s11.1-10.9 22.1-10.7c11 .1 21.8 11.3 21.8 11.3l-5.6 5.4-5.4-5.6-5.6 5.4-5.4-1.1-5.6 1-5.4-5.6-5.6 5.4z" fill="#fff" stroke="#30b381" stroke-miterlimit="10"/><path d="m1577.4 237.4s-13.1-8.4-23.8-6-19.1 15.4-19.1 15.4l6.5 4.2 4.2-6.5 6.5 4.2 4.2-6.5 6.5 4.2 4.2-6.5 6.5 4.2z" fill="#fff" stroke="#30b381" stroke-miterlimit="10"/><circle cx="1577.4" cy="247.7" fill="#fff" r="5.5" stroke="#037dae" stroke-miterlimit="10"/><path d="m1622.5 245.5s2.9-15.3 12-21.5 24.4-3.3 24.4-3.3l-1.4 7.6-7.6-1.4-1.4 7.6-7.6-1.4-1.4 7.6-7.6-1.4-1.4 7.6z" fill="#fff" stroke="#30b381" stroke-miterlimit="10"/><path d="m1622.4 246.3s11.8-10.1 22.8-9.2 21 12.7 21 12.7l-5.9 5-5-5.9-5.9 5-5-5.9-5.9 5-5-5.9-5.9 5z" fill="#fff" stroke="#30b381" stroke-miterlimit="10"/><path d="m1577.1 363.1s4-8 12.1-8c8 0 12.1 8 20.1 8s8-8 16.1-8c8 0 8 8 16.1 8" fill="none" stroke="#037dae" stroke-miterlimit="10"/><path d="m1537.1 341.5-9.8-45.8" fill="none" stroke="#415364"/><circle cx="1585.7" cy="244.6" fill="#fff" r="5.9" stroke="#037dae" stroke-miterlimit="10"/><circle cx="1579.4" cy="240.5" fill="#fff" r="2.7" stroke="#037dae" stroke-miterlimit="10"/><path d="m1620.7 244.4s.2-15.5-7.5-23.4-23.2-8.1-23.2-8.1l-.1 7.8 7.8.1-.1 7.8 7.8.1-.1 7.8 7.8.1-.1 7.8z" fill="#fff" stroke="#30b381" stroke-miterlimit="10"/><path d="m1521.6 344.4s7.3-5.5 13.7-4.7c6.4.9 12 8.1 12 8.1" fill="none" stroke="#037dae" stroke-miterlimit="10"/><path d="m1622.4 244.9s-5.6-14.5-15.7-18.9-24.5 1.2-24.5 1.2l2.8 7.2 7.2-2.8 2.8 7.2 7.2-2.8 2.8 7.2 7.2-2.8 2.8 7.2z" fill="#fff" stroke="#30b381" stroke-miterlimit="10"/><path d="m1622.4 246.5s-13-8.5-23.8-6.2c-10.7 2.3-19.2 15.3-19.2 15.3l6.5 4.2 4.2-6.5 6.5 4.2 4.2-6.5 6.5 4.2 4.2-6.5 6.5 4.2z" fill="#fff" stroke="#30b381" stroke-miterlimit="10"/><circle cx="1619.8" cy="249.1" fill="#fff" r="5.5" stroke="#037dae" stroke-miterlimit="10"/><circle cx="1628.7" cy="253.4" fill="#fff" r="4.3" stroke="#037dae" stroke-miterlimit="10"/><circle cx="1622.8" cy="255.3" fill="#fff" r="2.7" stroke="#037dae" stroke-miterlimit="10"/></g><path d="m1607.2 285v.4c-.4 4.3-5.4 45.9-29.7 52.5l-.2-.4-33.3-9.1 1.5-1 11.2-6.5 9.6-11.2 5.4-13.8 4.6-17.9-2 3.3z" fill="#fff"/><path d="m1531.9 349.8 1.1-1.9.1.1z" fill="#fff"/><path d="m1566.6 359.1-2 3.1 1.8-3.1z" fill="#fff"/><path d="m1610.1 281.9-1.8 3.1" fill="none"/><path d="m1564 313.7c8.1-9.2 11.3-32.8 11.3-32.8s-3.2 23.6-11.3 32.8-17.3 14.7-26 13.3" fill="none" stroke="#037dae" stroke-width="2"/><path d="m1582.9 281.7s-2.8 41.6-33.2 48.5" fill="none" stroke="#037dae" stroke-width="2"/><path d="m1590.8 282.6s-4.3 43.5-30 50.5" fill="none" stroke="#037dae" stroke-width="2"/><path d="m1598.8 283.4s-1.9 40.8-27.1 52.2" fill="none" stroke="#037dae" stroke-width="2"/><path d="m1588.3 320.2 12.9 38" fill="none" stroke="#415364" stroke-linecap="round" stroke-width="2"/><path d="m1576.9 277.3-45.5 72.3" fill="none" stroke="#415364" stroke-linecap="round" stroke-width="2"/><circle cx="1607.5" cy="346" fill="#fff" r="18.5" stroke="#fff" stroke-width="2"/><path d="m1575.3 280.8 32.8 3.7" fill="none" stroke="#415364" stroke-width="2"/><path d="m1601.1 344.7c-1.1-5.4-1.2-10.8-.3-16" fill="none" stroke="#037dae" stroke-width="2"/><path d="m1610.3 364.2c-4.7-5.8-7.7-12.6-9.1-19.5" fill="none" stroke="#037dae" stroke-width="2"/><path d="m1625.4 350.3-23.5-6.6" fill="none" stroke="#037dae" stroke-width="2"/><path d="m1590.3 339.2c2.8 2.3 4.4 3.4 10 4.5" fill="none" stroke="#037dae" stroke-width="2"/><path d="m1601.9 342.4c5.5-6.4 8.3-9.3 17-10.8" fill="none" stroke="#037dae" stroke-width="2"/><path d="m1591.7 356.1c2.5-4.4 6.8-10.4 8.5-11.4" fill="none" stroke="#037dae" stroke-width="2"/><path d="m1532.8 347.9 33.7 11.2" fill="none" stroke="#037dae" stroke-width="2"/><path d="m1608.2 284.7s-4.1 45.8-29.8 52.8" fill="none" stroke="#037dae" stroke-width="2"/><path d="m1511.3 291.4s2.5 7 16.1 4.4c13.6-2.7 12.5-10.1 12.5-10.1" fill="#fff" stroke="#037dae" stroke-width="2"/><path d="m1609.9 281.9-45.5 80.3" fill="none" stroke="#415364" stroke-linecap="round" stroke-width="2"/><path d="m1538 327 47 12.2" fill="none" stroke="#415364" stroke-linecap="round" stroke-width="2"/><path d="m1539.8 285.7c4.8 9.3 20.7 4.4 20.7 4.4l-1.2-4.4c-1.5-5.3-4.1-10.3-7.8-14.5-5.8-6.5-15.8-13.2-31.2-10.3-19.3 3.5-24.7 18.5-26.3 27.5-.6 3.2-.6 6.5-.3 9.8l.7 5.8s16.4-2.1 17-12.6" fill="#fff" stroke="#037dae" stroke-width="2"/><path d="m1558.2 282.7-64.8 12.2" fill="none" stroke="#037dae" stroke-width="2"/><circle cx="1601.5" cy="343.9" fill="#415364" r="3.3"/><circle cx="1607.5" cy="346" fill="none" r="18.5" stroke="#037dae" stroke-width="2"/><path d="m1539.8 285.7s-6.9-27.6-19.6-24.8-8.9 30.5-8.9 30.5" fill="none" stroke="#037dae" stroke-width="2"/><path d="m1475.9 212.9-39.1-53.4h-61.8.8-61.8l-36.2 53.4 9.6 12v138.5l90.8.5 85.1-.5v-138.5l12.6-12-12.6 12z" fill="#fff"/><g fill="none" stroke="#00a0df" stroke-miterlimit="10" stroke-width="2.5"><path d="m1375.5 159.5h61.8l39.1 53.4h-97.6"/><path d="m1375.5 171.6 42.3 41.3"/><path d="m1350.3 224.9h113.6l12.5-12"/><path d="m1371.4 363.9 92.5-.5v-138.5"/><path d="m1371.4 346.4h91.4"/><path d="m1378.5 236.2h28v43.5h-28z"/><path d="m1392.5 235.7v44"/><path d="m1378 251.7h29.3"/><path d="m1420 236.2h28v43.5h-28z"/><path d="m1434 235.7v44"/><path d="m1419.4 251.7h29.3"/><path d="m1420 293.3h28v43.5h-28z"/><path d="m1434 292.7v44.1"/><path d="m1419.4 308.8h29.3"/><path d="m1379 293.3h28v43.5h-28z"/><path d="m1393 292.7v44.1"/><path d="m1378.4 308.8h29.4"/><ellipse cx="1375.6" cy="196.4" rx="6.8" ry="6.8"/><path d="m1350.6 212.9h34.8"/><path d="m1291.7 212.9h18"/><path d="m1375.4 159.5h-61.8l-29.7 42.5"/><path d="m1375.4 171.6-30.7 30"/></g><path d="m527.8 103.8h506v315h-506z" fill="#fff"/><path d="m1034.8 419.7h-508v-316.9h508zm-505.9-1.9h504v-313.1h-504z" fill="#037dae"/><path d="m1017.8 396.1h-478.4v-278.5h121.3 357.1z" fill="#b9dbe5"/><path d="m431.5 330h10.1l26.9-32.7 20.5-1.2v-16.8l-19.7-1.2-27.7-32.7h-10.1z" fill="#fff"/><path d="m442 330.8h-11.3v-86.1h11.3l27.7 32.7 20.2 1.2v18.3l-20.9 1.2zm-9.7-1.7h8.9l26.9-32.7 20.1-1.1v-15.3l-19.3-1.1-27.6-32.7h-8.9v82.9z" fill="#037dae"/><path d="m488.3 278.8h40.2v17h-40.2z" fill="#fff"/><path d="m528.9 296.7h-41v-18.6h41zm-40.3-1.7h39.5v-15.4h-39.5z" fill="#037dae"/><path d="m493.9 277.3v20.1c0 1.4-1.2 2.6-2.6 2.6s-2.6-1.2-2.6-2.6v-20.1c0-1.4 1.2-2.6 2.6-2.6s2.6 1.1 2.6 2.6zm2.6-2.6c-1.4 0-2.6 1.2-2.6 2.6v20.1c0 .9.5 1.7 1.1 2.2.4.3.9.4 1.5.4 1.4 0 2.6-1.2 2.6-2.6v-20.1c0-1.5-1.1-2.6-2.6-2.6zm-1.4 24.8c.4.3.9.5 1.5.5-.6 0-1.1-.2-1.5-.5z" fill="#fff"/><path d="m496.5 300.8c-.7 0-1.3-.2-1.9-.6-.3-.2-.5-.4-.7-.6-.6.7-1.6 1.2-2.6 1.2-1.9 0-3.4-1.5-3.4-3.4v-20.1c0-1.9 1.5-3.4 3.4-3.4 1 0 2 .5 2.6 1.2.6-.7 1.6-1.2 2.6-1.2 1.9 0 3.4 1.5 3.4 3.4v20.1c0 1.6-1.1 3-2.6 3.3v.1zm-5.2-25.3c-1 0-1.8.8-1.8 1.8v20.1c0 1 .8 1.8 1.8 1.8s1.8-.8 1.8-1.8v-20.1c0-1-.8-1.8-1.8-1.8zm4.2 23.4c.3.2.7.3 1 .3 1 0 1.8-.8 1.8-1.8v-20.1c0-1-.8-1.8-1.8-1.8s-1.8.8-1.8 1.8v20.1c0 .6.3 1.1.8 1.5z" fill="#037dae"/><path d="m425.8 237.9h14.8v99.6h-14.8z" fill="#fff"/><path d="m441.5 338.3h-16.4v-101.2h16.4zm-14.8-1.6h13.1v-97.9h-13.1z" fill="#037dae"/><path d="m1130.2 245.4h-10.1l-26.9 32.7-20.5 1.2v16.8l19.7 1.2 27.7 32.7h10.1z" fill="#fff"/><path d="m1131 330.8h-11.3l-27.7-32.7-20.2-1.2v-18.4l20.9-1.2 26.9-32.7h11.3zm-10.6-1.7h8.9v-82.9h-8.9l-26.9 32.7-20.1 1.1v15.3l19.3 1.1z" fill="#037dae"/><path d="m1034.2 279.6h39.2v17h-39.2z" fill="#fff"/><path d="m1073.8 297.4h-40v-18.6h40zm-39.2-1.7h38.5v-15.4h-38.5z" fill="#037dae"/><path d="m1067.8 298.1v-20.1c0-1.4 1.2-2.6 2.6-2.6s2.6 1.2 2.6 2.6v20.1c0 1.4-1.2 2.6-2.6 2.6-1.5 0-2.6-1.1-2.6-2.6zm-2.6 2.6c1.4 0 2.6-1.2 2.6-2.6v-20.1c0-.9-.5-1.7-1.1-2.2-.4-.3-.9-.4-1.5-.4-1.4 0-2.6 1.2-2.6 2.6v20.1c0 1.5 1.1 2.6 2.6 2.6zm1.4-24.9c-.4-.3-.9-.5-1.5-.5.6.1 1.1.3 1.5.5z" fill="#fff"/><path d="m1070.4 301.5c-1 0-2-.5-2.6-1.2-.6.7-1.6 1.2-2.6 1.2-1.9 0-3.4-1.5-3.4-3.4v-20.1c0-1.6 1.1-3 2.6-3.3v-.1h.8c.7 0 1.3.2 1.9.6.3.2.5.4.7.6.6-.7 1.6-1.2 2.6-1.2 1.9 0 3.4 1.5 3.4 3.4v20.1c0 1.9-1.5 3.4-3.4 3.4zm0-25.3c-1 0-1.8.8-1.8 1.8v20.1c0 1 .8 1.8 1.8 1.8s1.8-.8 1.8-1.8v-20.1c0-1-.8-1.8-1.8-1.8zm-5.2 0c-1 0-1.8.8-1.8 1.8v20.1c0 1 .8 1.8 1.8 1.8s1.8-.8 1.8-1.8v-20.1c0-.6-.3-1.2-.8-1.5-.3-.2-.7-.3-1-.3z" fill="#037dae"/><path d="m1120.9 237.9h14.8v99.6h-14.8z" fill="#fff"/><path d="m1136.6 338.3h-16.4v-101.2h16.4zm-14.8-1.6h13.1v-97.9h-13.1z" fill="#037dae"/><path d="m837.2 310.3c1.6.4 3.3-.5 3.8-1.9.2-.7.2-1.4-.2-2s-1-1.1-1.8-1.3c-1.6-.4-3.3.4-3.8 1.9-.2.7-.2 1.4.2 2 .4.7 1 1.1 1.8 1.3z" fill="none"/><path d="m692.5 256.8c0 22.8 9.7 43.5 25.5 58.4l24.6-23.4c-9.4-9-15.3-21.4-15.3-35.1 0-27.4 23.4-49.6 52.2-49.6v-33c-48 .1-87 37.1-87 82.7z" fill="#415364"/><path d="m866.5 256.8c0 45.6-38.9 82.6-87 82.6v-33c28.8 0 52.2-22.2 52.2-49.6z" fill="#127db8"/><path d="m779.5 306.4v33c-24 0-45.8-9.2-61.5-24.2l24.6-23.4c9.4 9 22.5 14.6 36.9 14.6z" fill="#9c4877"/><path d="m786.9 153.8v54c22.9 3.1 41 20.3 44.3 42h56.8c-3.7-51.4-46.9-92.5-101.1-96z" fill="#30b381"/><path d="m770.1 362.6c-2.1-.2-4.2-.4-6.2-.7l.8-5.7c1.9.3 3.9.5 5.9.6zm-12.4-1.6c-2-.4-4.1-.8-6.1-1.3l1.5-5.6c1.9.5 3.9.9 5.8 1.2zm-12.1-3c-2-.6-4-1.3-5.9-2l2.2-5.4c1.8.7 3.7 1.3 5.6 1.9zm-11.8-4.3c-1.9-.8-3.8-1.7-5.7-2.6l2.8-5.1c1.7.9 3.5 1.7 5.3 2.4zm-11.1-5.4c-1.8-1-3.6-2.1-5.3-3.2l3.4-4.8c1.6 1 3.3 2.1 5 3zm-10.4-6.7c-1.7-1.2-3.3-2.4-4.9-3.7l3.9-4.4c1.5 1.2 3.1 2.4 4.6 3.5zm-9.6-7.7c-1.5-1.4-3-2.8-4.4-4.2l4.4-4c1.4 1.4 2.8 2.7 4.2 4zm-8.6-8.6c-1.3-1.5-2.7-3.1-3.9-4.7l4.9-3.5c1.2 1.5 2.4 3 3.7 4.4zm-7.5-9.5c-1.2-1.6-2.3-3.3-3.3-5l5.2-2.9c1 1.6 2.1 3.2 3.2 4.8zm-6.4-10.2c-1-1.8-1.9-3.6-2.7-5.4l5.6-2.4c.8 1.7 1.7 3.4 2.6 5.1zm-5.1-10.9c-.7-1.8-1.4-3.7-2.1-5.6l5.8-1.8c.6 1.8 1.3 3.6 2 5.3zm-3.8-11.3c-.5-1.9-1-3.9-1.4-5.8l6-1.1c.4 1.8.8 3.7 1.3 5.5zm-2.5-11.7c-.3-2-.5-3.9-.7-5.9l6.1-.5c.2 1.9.4 3.7.7 5.6z" fill="#415364"/><path d="m776.5 357.2h6v5.7h-6z" fill="#415364"/><path d="m667.8 253.9h6v5.7h-6z" fill="#415364"/><path d="m814.7 256.8c0 18.5-15.8 33.5-35.2 33.5-19.5 0-35.2-15-35.2-33.5s15.8-33.5 35.2-33.5c19.5.1 35.2 15 35.2 33.5z" fill="#fff"/><path d="m776.9 274.5c-2.9 0-5.6-1.1-7.6-3-2.1-2-3.2-4.5-3.2-7.3h6.1c0 1.2.5 2.3 1.4 3.2.9.8 2.1 1.3 3.3 1.3h5.2c1.3 0 2.4-.5 3.3-1.3.9-.9 1.4-2 1.4-3.2s-.5-2.3-1.4-3.2-2.1-1.3-3.3-1.3h-5.2c-2.9 0-5.6-1.1-7.6-3s-3.2-4.5-3.2-7.3c0-2.7 1.1-5.3 3.1-7.3 2.1-2 4.8-3 7.7-3h5.2c2.8 0 5.6 1.1 7.6 3 2.1 2 3.2 4.6 3.2 7.3h-6.1c0-1.2-.5-2.3-1.4-3.2-.9-.8-2.1-1.3-3.3-1.3h-5.2c-1.2 0-2.5.5-3.4 1.3s-1.4 2-1.4 3.2.5 2.3 1.4 3.2 2.1 1.3 3.3 1.3h5.2c2.9 0 5.6 1.1 7.6 3s3.2 4.5 3.2 7.3c0 2.7-1.1 5.3-3.1 7.2-2.1 1.9-4.8 3-7.6 3z" fill="#30b381"/><path d="m775.5 236.2h6.1v5.9h-6.1z" fill="#30b381"/><path d="m775.5 271.6h6.1v5.9h-6.1z" fill="#30b381"/><ellipse cx="717" cy="341.3" fill="#fff" rx="11.3" ry="10.7"/><path d="m573 303.3-.2-22.8 10.1-3 7.1 5.9-1.8 19.9z" fill="#fff"/><path d="m588.8 304h-16.5l-.2-23.9 11-3.3 7.7 6.4zm-15.1-1.4h13.9l1.7-18.9-6.5-5.4-9.3 2.8z" fill="#037dae"/><path d="m612 270.6-7.7 19.5-7.9-6.2 5-13.3z" fill="#fff"/><path d="m604.6 291.2-9.1-7.1 5.4-14.3h12.1zm-7.4-7.5 6.8 5.3 7-17.7h-9.1z" fill="#415364"/><path d="m601.6 276.9.6 3.7 5.6-6.3" fill="#fff"/><path d="m601.8 282.2-.9-5.2 1.3-.2.4 2.3 4.7-5.3 1 1z" fill="#037dae"/><circle cx="606.7" cy="269" fill="#fff" r="1.6"/><path d="m606.7 271.3c-1.2 0-2.3-1-2.3-2.3 0-.6.2-1.2.7-1.6.4-.4 1-.7 1.6-.7 1.2 0 2.3 1 2.3 2.3 0 .6-.2 1.2-.7 1.6-.4.4-1 .7-1.6.7zm0-3.1c-.2 0-.4.1-.6.3s-.3.4-.3.6c0 .5.4.9.9.9.2 0 .4-.1.6-.3s.3-.4.3-.6c0-.5-.4-.9-.9-.9z" fill="#415364"/><path d="m601.9 287c1.2.4 2.8.3 3.9-.2 1.1-.6 1.8-1.6 1.8-2.7.7 0 1.3.4 1.7.9s.5 1 .6 1.6c.3 1.4.3 2.9-.6 4.1s-2.9 2-4.6 1.6c-1.1-.3-1.9-1-2.3-1.9-.4-.8-.6-1.7-.7-2.6" fill="#fff"/><path d="m605.8 292.9c-.4 0-.8-.1-1.2-.2-1.2-.3-2.2-1.1-2.7-2.2-.5-.9-.6-1.9-.8-2.8l.8-.1h-.1l.5-1.3c1.1.4 2.4.3 3.4-.2.9-.5 1.4-1.3 1.4-2l-.1-.8h.8c.9 0 1.7.5 2.2 1.1s.7 1.3.8 1.9c.4 1.9.1 3.4-.8 4.6-.9 1.1-2.5 2-4.2 2zm-3.3-5.1c.1.7.2 1.5.6 2.1.4.7 1.1 1.3 1.9 1.5 1.5.4 3.2-.4 3.9-1.3s.8-2 .5-3.5c-.1-.4-.2-.9-.5-1.3-.1-.2-.3-.3-.6-.4-.2 1-1 1.9-2.1 2.4-1.1.6-2.5.8-3.7.5z" fill="#415364"/><path d="m582.3 310.1h-9.8v-6.8c2.2 3.4 5.7 5.9 9.8 6.8z" fill="#fff"/><path d="m571.9 277.3h8v.3" fill="#fff"/><path d="m579.9 278h-8v-1.4h8.7v1h-.7z" fill="#415364"/><path d="m572.6 281.3 5.7 18.3 26-8-2.1-6.7-17.4 5.1-3.3-6.6" fill="#fff"/><path d="m577.8 300.4-5.8-18.9 1.3-.4 5.4 17.6 24.7-7.5-1.6-5.4-17.4 5-3.5-7.1 1.2-.6 3 6.1 17.6-5.1 2.5 8z" fill="#037dae"/><path d="m600.3 293.8-2.1-7.8" fill="none"/><path d="m598.4 285.9h1.4v8.1h-1.4z" fill="#037dae" transform="matrix(.9661 -.2581 .2581 .9661 -54.5469 164.4653)"/><circle cx="582.7" cy="263.2" fill="#fff" r="9.6"/><path d="m582.7 273.6c-1.7 0-3.3-.4-4.9-1.2-2.4-1.3-4.2-3.5-5-6.1s-.5-5.4.8-7.9c1.3-2.4 3.5-4.2 6.1-5s5.4-.5 7.9.8c2.4 1.3 4.2 3.5 5 6.1 1.7 5.5-1.4 11.2-6.9 12.9-1 .2-2 .4-3 .4zm0-19.3c-.9 0-1.7.1-2.6.4-2.3.7-4.2 2.2-5.3 4.3s-1.4 4.5-.7 6.8 2.2 4.2 4.3 5.3 4.5 1.4 6.8.7c4.7-1.4 7.4-6.4 6-11.1-.7-2.3-2.2-4.2-4.3-5.3-1.3-.7-2.7-1.1-4.2-1.1z" fill="#415364"/><path d="m568.9 259.1c1.1-4.5 4.1-8.2 8.5-9.6 6.2-1.9 12.5.4 15.5 6.8l-15 4.5 5 16.6-10.1 3.1z" fill="#fff"/><path d="m572.2 281.4-4.1-22.4v-.1c1.2-4.9 4.5-8.7 9-10.1 6.8-2.1 13.3.8 16.3 7.2l.3.7-15.1 4.6 5 16.6zm-2.6-22.3 3.7 20.5 8.7-2.6-5-16.6 14.9-4.5c-2.8-5.3-8.3-7.5-14.3-5.7-3.9 1.2-6.9 4.5-8 8.9z" fill="#415364"/><path d="m576.3 318.1h7.4v36.3h-7.4z" fill="#fff"/><path d="m584.4 355.1h-8.8v-37.7h8.8zm-7.4-1.4h6v-34.9h-6z" fill="#415364"/><path d="m576.3 354.4h12v3.4h-12z" fill="#fff"/><path d="m588.9 358.5h-13.4v-4.8h13.4zm-11.9-1.4h10.6v-2h-10.6z" fill="#037dae"/><path d="m565.3 330.1h31.8l-8.9-26.8h-15.2z" fill="#fff"/><path d="m598 330.8h-33.6l8.1-28.3h16.2zm-31.8-1.4h29.8l-8.4-25.5h-14.2z" fill="#037dae"/><path d="m121.5 179.1c3.9 0 7.1-3.2 7.1-7.1s-3.2-7.1-7.1-7.1-7.1 3.2-7.1 7.1 3.2 7.1 7.1 7.1z" fill="#fff"/><path d="m121.5 180.2c-4.5 0-8.2-3.7-8.2-8.2s3.7-8.2 8.2-8.2 8.2 3.7 8.2 8.2c-.1 4.5-3.7 8.2-8.2 8.2zm0-14.1c-3.3 0-6 2.7-6 6s2.7 6 6 6 6-2.7 6-6c-.1-3.4-2.7-6-6-6z" fill="#097dae"/><path d="m152.4 192.6c5 0 9-4.1 9-9 0-5-4.1-9-9-9-5 0-9 4.1-9 9s4 9 9 9z" fill="#fff"/><path d="m152.4 193.7c-5.6 0-10.1-4.5-10.1-10.1s4.5-10.1 10.1-10.1 10.1 4.5 10.1 10.1-4.5 10.1-10.1 10.1zm0-18.1c-4.4 0-7.9 3.6-7.9 7.9 0 4.4 3.6 7.9 7.9 7.9 4.4 0 7.9-3.6 7.9-7.9.1-4.3-3.5-7.9-7.9-7.9z" fill="#097dae"/><path d="m91 178.8c3.1 0 5.7-2.6 5.7-5.7s-2.6-5.7-5.7-5.7-5.7 2.6-5.7 5.7 2.5 5.7 5.7 5.7z" fill="#fff"/><path d="m91 179.9c-3.7 0-6.8-3-6.8-6.8 0-3.7 3-6.8 6.8-6.8 3.7 0 6.8 3 6.8 6.8-.1 3.7-3.1 6.8-6.8 6.8zm0-11.4c-2.5 0-4.6 2.1-4.6 4.6s2.1 4.6 4.6 4.6 4.6-2.1 4.6-4.6-2.1-4.6-4.6-4.6z" fill="#097dae"/><path d="m105.3 237.5c0-16.5-8.3-29.8-18.4-29.8-10.2 0-18.4 13.4-18.4 29.8 0 4.5.6 8.7 1.7 12.5h33.5c1-3.8 1.6-8 1.6-12.5z" fill="#fff"/><path d="m104.2 250.8h-34.7l-.2-.6c-1.2-4-1.7-8.3-1.7-12.8 0-16.9 8.6-30.7 19.3-30.7s19.3 13.8 19.3 30.7c0 4.4-.6 8.7-1.7 12.8zm-33.4-1.6h32.2c1-3.7 1.5-7.6 1.5-11.7 0-16-7.9-29-17.6-29s-17.6 13-17.6 29c-.1 4.1.5 8 1.5 11.7z" fill="#415364"/><path d="m116.3 290.3-9.3-40.9c-.1-.2-1-4.1-4.2-7.1-4.9-2.5-10.7-3.1-16.1-3.1s-10.9.8-15.9 2.7c-.1 0 0 0 0 0-.4.1-.8.3-1.2.4-3.2 2.9-4.1 6.8-4.1 7l-4.1 17.4-4.8-24.3c-.1-.8-1.1-7.8-9.8-10.1l-7.7-2.6v-8.5c-2 1.2-4.3 1.9-6.7 1.9s-4.6-.7-6.6-1.9v8.5l-7.7 2.6c-8.7 2.3-9.7 9.2-9.8 10.1l-8.2 41.7v.3l.4 5.1-.4 2.9c-.2 1.2.2 2.5.9 3.4.8 1 1.9 1.6 3.1 1.8h.6c1 0 2-.3 2.8-1 1-.7 1.6-1.8 1.8-3l.8-3.8 2.8-5.1c.1-.1.1-.2.1-.3l4-20.2v26.2 69.6c-.5.3-.9.6-1.3 1-2.1 2.3-2 5.9-2 6 0 .6.5 1 1.1 1h14.4c.6 0 1.1-.5 1.1-1.1v-6.6l2.2-41.7 2.2 41.7v6.6c0 .6.5 1.1 1.1 1.1h14.4c.6 0 1.1-.4 1.1-1 0-.2.2-3.7-2-6-.4-.4-.8-.8-1.3-1v-69.6-26.2l4 20.2c0 .1.1.2.1.3l2.8 5.1.8 3.8c.2 1.2.8 2.3 1.8 3 .8.6 1.8 1 2.8 1h.6c1.2-.2 2.3-.8 3.1-1.8s1.1-2.2.9-3.4l-.4-2.8 9.7-29.1c.2.2.5.3.8.4l.3 4.4c-8.1 12.6-8.2 51.8-8.2 53.5 0 .6.5 1.1 1.1 1.1h6.6c.1 4 .7 19 4.5 39.9-.1.8-.9 4.5-4.4 6.6-.4.3-.6.8-.5 1.2.1.5.6.8 1 .8h21.7c.5 0 .9-.3 1-.8s-.1-1-.5-1.2c-3.4-2.1-4.2-5.8-4.4-6.6 3.8-20.8 4.4-35.8 4.5-39.9h6.6c.6 0 1.1-.5 1.1-1.1 0-1.7-.1-40.9-8.2-53.5l.3-4.4c.3-.1.5-.2.7-.4l9.6 31.6c.3 1.1.9 2 1.9 2.7.7.4 1.5.7 2.3.7.3 0 .6 0 1-.1 1.1-.3 2.1-.9 2.7-1.9.6-.9.8-2.1.6-3.2z" fill="#415364"/><path d="m2.6 288.8h5.9l1.7-3h-7.7z" fill="#fff"/><path d="m10.5 243.1v.1l-7.9 40.5h8.5l5.9-29.9-5-14.4c-1.3 1.8-1.5 3.5-1.5 3.7z" fill="#fff"/><path d="m2.3 293.1c-.1.7.1 1.3.5 1.8s1 .9 1.6.9c.7.1 1.3-.1 1.8-.5s.9-1 .9-1.6v-.1l.6-2.6h-5.2z" fill="#fff"/><path d="m28.5 236.3-2.1-4.1-2.8.9.2 5.3z" fill="#fff"/><path d="m19.2 253.3v.1.1.1 36.3h12.2v-47.8l-1.9-3.7-6.2 2.8c-.1.1-.3.1-.5.1s-.4-.1-.6-.2c-.3-.2-.5-.5-.5-.9l-.3-6.2-2.6.9h-.1c-2.3.6-3.9 1.5-5.1 2.6z" fill="#fff"/><path d="m44.7 362h-7.9v4.5h12.1c-.1-1-.4-2.4-1.3-3.4-.6-.7-1.6-1.1-2.9-1.1z" fill="#fff"/><path d="m46.2 234.8-2.7-.9-.3 6.2c0 .4-.2.7-.5.9-.2.1-.4.2-.6.2s-.3 0-.5-.1l-6.2-2.8-1.9 3.7v47.9h12.3v-36.3s0 0 0-.1v-.1-.1s0 0 0-.1l5.5-15.8c-1.2-1-2.8-2-5.1-2.6z" fill="#fff"/><path d="m45.8 292h-26.5v67.8h9l3.2-61.7c0-.6.5-1.1 1.1-1 .6 0 1 .5 1 1l3.2 61.7h9z" fill="#fff"/><path d="m17.3 363.1c-.9 1-1.2 2.4-1.3 3.4h12.1v-4.5h-7.9c-1.2 0-2.2.4-2.9 1.1z" fill="#fff"/><path d="m54.5 243.2v-.1c0-.1-.2-1.9-1.5-3.7l-5 14.4 5.9 29.9h8.5z" fill="#fff"/><path d="m32.5 230.3c-1.6 0-3.1-.5-4.5-1.4v1.7l4.5 8.7 4.5-8.7v-1.7c-1.4.9-2.9 1.4-4.5 1.4z" fill="#fff"/><path d="m36.5 236.3 4.6 2.1.2-5.3-2.8-.9z" fill="#fff"/><path d="m62.6 285.8h-7.8l1.6 3h5.9z" fill="#fff"/><path d="m62.4 291h-5.2l.6 2.6v.1c.1.7.4 1.2.9 1.6s1.2.6 1.8.5c.7-.1 1.2-.4 1.6-.9s.6-1.2.5-1.8z" fill="#fff"/><path d="m78.4 366.5h6.7v-5.3h-3.9c-.3 1.2-1.1 3.3-2.8 5.3z" fill="#fff"/><path d="m66.2 255.2-3.8 17.2 2.1 10.6 7.9-23.9c-.3-.4-.5-.9-.7-1.5z" fill="#fcebe6"/><path d="m81.2 358.9h3.9v-38.8h-8.3c.1 4.1.7 18.6 4.4 38.8z" fill="#fff"/><path d="m87.3 358.9h3.9c3.7-20.3 4.3-34.8 4.4-38.8h-8.3z" fill="#fff"/><path d="m87.3 361.1v5.3h6.7c-1.8-1.9-2.5-4.1-2.8-5.3z" fill="#fff"/><path d="m92.1 239.4 6.5 2.4c-.8 4.3-5.5 6.5-12.1 6.5s-11.8-2.2-12.7-6.5l6.5-2.4c.8-.2 1.8-1 1.8-1.8v-7c1.4.7 2.8 1.1 4.3 1.1s3-.4 4.3-1.1v7c.1.8.6 1.6 1.4 1.8z" fill="#fff"/><path d="m86.4 249c-7.6 0-12.6-2.7-13.5-7.1l-.1-.7 7.2-2.7c.6-.2 1.2-.7 1.2-1v-8.3l1.2.6c2.6 1.3 5.4 1.3 7.9 0l1.2-.6v8.3c0 .5.3.9.7 1h.1l7.2 2.6-.1.7c-.9 4.6-5.6 7.2-13 7.2zm-11.7-6.7c1.1 3.2 5.4 5.1 11.7 5.1 6.1 0 10.1-1.9 11.2-5.1l-5.8-2.1c-1.1-.3-1.9-1.4-1.9-2.6v-5.7c-2.3.8-4.7.8-7 0v5.7c0 1.3-1.4 2.3-2.4 2.6z" fill="#415364"/><path d="m41.3 233.2-.2 5.2-4.6-2.1 2.1-4.1z" fill="#30b381"/><path d="m32.5 239.4-5-9.5v-1.9c1.5 1 3.2 1.5 5 1.5s3.5-.5 4.9-1.5v1.9z" fill="#fff"/><path d="m32.5 241.1-5.8-11.1v-3.6l1.3.8c1.4.9 2.9 1.4 4.5 1.4s3.1-.5 4.5-1.4l1.3-.8v3.6zm-4.2-11.5 4.1 8 4.1-8v-.3c-2.6 1.2-5.6 1.2-8.3 0z" fill="#415364"/><path d="m26.4 232.2 2.1 4.1-4.6 2.1-.3-5.2z" fill="#30b381"/><path d="m7.2 293.6c0 .1 0 .1 0 0-.1.7-.4 1.3-1 1.7-.5.4-1.2.6-1.8.5-.7-.1-1.2-.4-1.6-.9s-.6-1.2-.5-1.8l.3-2.1h5.2z" fill="#fff"/><path d="m8.5 288.8h-5.9l-.2-3h7.7z" fill="#30b381"/><path d="m11.1 283.6h-8.5l7.9-40.5v-.1c0-.1.2-1.9 1.5-3.7l5 14.4z" fill="#00a0df"/><path d="m13.7 237.4c1.2-1.1 2.8-2 5.1-2.6h.1l2.6-.9.3 6.2c0 .4.2.7.5.9.2.1.4.2.6.2s.3 0 .5-.1l6.2-2.8 1.9 3.7v47.9h-12.2v-36.3s0 0 0-.1v-.1-.1s0 0 0-.1z" fill="#00a0df"/><path d="m28.1 366.5h-12.1c.1-1 .4-2.4 1.3-3.4.7-.7 1.7-1.1 2.9-1.1h7.9z" fill="#00a0df"/><path d="m33.6 298.2c0-.5-.5-1-1-1-.6 0-1.1.4-1.1 1l-3.2 61.7h-9v-67.8h26.5v67.8h-9z" fill="#c8c8c8"/><path d="m49 366.5h-12.2v-4.5h7.9c1.3 0 2.2.4 2.9 1.1 1 1 1.3 2.4 1.4 3.4z" fill="#00a0df"/><path d="m45.8 253.2c0 .1 0 .1 0 0v.2.1.1 36.3h-12.2v-47.8l1.9-3.7 6.2 2.8c.1.1.3.1.5.1s.4-.1.6-.2c.3-.2.5-.5.5-.9l.3-6.2 2.6.9h.1c2.3.6 3.9 1.5 5.1 2.6z" fill="#00a0df"/><path d="m53.9 283.6-5.9-29.9 5-14.4c1.3 1.9 1.5 3.6 1.5 3.7v.1l7.9 40.5z" fill="#00a0df"/><path d="m56.5 288.8-1.7-3h7.8l-.3 3z" fill="#30b381"/><path d="m62.2 294.9c-.4.5-1 .9-1.6.9-.7.1-1.3-.1-1.8-.5s-.9-1-.9-1.6v-.1l-.6-2.6h5.2l.3 2.1c0 .7-.2 1.3-.6 1.8z" fill="#fff"/><path d="m64.5 283-2.1-10.6 3.8-17.2 5.5 2.5c.2.5.4 1 .7 1.5z" fill="#fff"/><path d="m85.1 366.5h-6.7c1.8-1.9 2.5-4.1 2.8-5.3h3.9z" fill="#30b381"/><path d="m85.1 358.9h-3.9c-3.7-20.3-4.3-34.8-4.4-38.8h8.3z" fill="#fff"/><path d="m94 366.5h-6.7v-5.3h3.9c.3 1.2 1.1 3.3 2.8 5.3z" fill="#30b381"/><path d="m91.2 358.9h-3.9v-38.8h8.3c-.1 4-.7 18.6-4.4 38.8z" fill="#fff"/><path d="m113.9 292.7c-.3.5-.8.8-1.3.9-.6.1-1.1 0-1.6-.3s-.8-.8-.9-1.3v-.1l-10-32.8c.3-.4.5-.9.7-1.5l5.5-2.5 8 35.9c0 .6-.1 1.2-.4 1.7z" fill="#fff"/><path d="m.1 169.2h172.1v200h-172.1z" fill="none"/><ellipse cx="86.6" cy="224.6" fill="#fff" rx="9.1" ry="11.9"/><path d="m86.6 237.3c-5.5 0-9.9-5.7-9.9-12.7s4.5-12.7 9.9-12.7 9.9 5.7 9.9 12.7-4.5 12.7-9.9 12.7zm0-23.7c-4.6 0-8.3 5-8.3 11s3.7 11 8.3 11 8.3-5 8.3-11-3.8-11-8.3-11z" fill="#415364"/><path d="m78.3 225.9-.6-1.5c2.7-1.1 3.9-2.4 4.8-5.2l.4-1.3.9 1.1c2.5 2.9 7.1 3.8 10.6 2.3l.7 1.5c-3.8 1.7-8.4.9-11.6-1.8-.9 2.4-2.4 3.8-5.2 4.9z" fill="#415364"/><ellipse cx="32.5" cy="217.3" fill="#fff" rx="10.6" ry="12.1"/><path d="m32.5 230.2c-6.3 0-11.4-5.8-11.4-12.9s5.1-12.9 11.4-12.9 11.4 5.8 11.4 12.9-5.1 12.9-11.4 12.9zm0-24.2c-5.4 0-9.8 5.1-9.8 11.3s4.4 11.3 9.8 11.3 9.8-5.1 9.8-11.3c0-6.3-4.4-11.3-9.8-11.3z" fill="#415364"/><path d="m22.8 218.1-.7-1.5c2.6-1.2 5-3.3 6.5-5.7l.5-.8.7.7c3.4 3.1 8.2 4.5 12.7 3.6l.3 1.6c-4.7.9-9.8-.4-13.5-3.4-1.5 2.3-3.8 4.2-6.5 5.5z" fill="#415364"/><path d="m76.6 261 .2 4.3h18.8l.3-4.3z" fill="#30b381"/><path d="m68.5 189.7c2.2 0 4-1.8 4-4s-1.8-4-4-4-4 1.8-4 4 1.8 4 4 4z" fill="#fff"/><path d="m68.5 190.7c-2.8 0-5.1-2.3-5.1-5.1s2.3-5.1 5.1-5.1 5.1 2.3 5.1 5.1c-.1 2.9-2.4 5.1-5.1 5.1zm0-7.9c-1.6 0-2.9 1.3-2.9 2.9s1.3 2.9 2.9 2.9 2.9-1.3 2.9-2.9c-.1-1.6-1.4-2.9-2.9-2.9z" fill="#097dae"/><path d="m509.4 330.8h18.5v40.6h-18.5z" fill="#fff"/><path d="m528.9 372.4h-20.5v-42.5h20.5zm-18.5-1.9h16.4v-38.7h-16.4z" fill="#037dae"/><path d="m862.9 540.4h-8.1v-2.6h8.1zm-16.3 0h-8.1v-2.6h8.1zm-16.2 0h-8.1v-2.6h8.1zm-16.3 0h-8.1v-2.6h8.1zm-16.3 0h-8.1v-2.6h8.1zm-16.2 0h-8.1v-2.6h8.1zm-16.3 0h-8.1v-2.6h8.1zm-16.2 0h-8.1v-2.6h8.1zm-16.3 0h-8.1v-2.6h8.1zm-16.2 0h-8.1v-2.6h8.1zm-16.3 0h-8.1v-2.6h8.1z" fill="#037dae"/><path d="m865.2 518.9h-168.7l14.1-60.1h140.5z" fill="#fff"/><path d="m866.4 519.9h-171.2l14.5-62h142.2zm-168.6-2h166.1l-13.6-58.1h-138.9z" fill="#037dae"/><path d="m759.8 418.8h42.2v60.1h-42.2z" fill="#fff"/><path d="m802.9 479.8h-44.2v-62h44.2zm-42.1-1.9h40.1v-58.1h-40.1z" fill="#037dae"/><path d="m1056.1 182.4h-22.8v-1.6h22.8c3.1 0 5.6-2.6 5.6-5.7v-18.2h1.6v18.1c-.1 4.1-3.3 7.4-7.2 7.4z" fill="#037dae"/><path d="m1063.4 73.6h-2v-25.6c0-3.2-3.1-5.7-7-5.7h-178.4v-1.6h178.4c4.9 0 8.9 3.3 8.9 7.4z" fill="#037dae"/><path d="m499.1 73.2h-2v-25.3c0-4.1 4-7.4 8.8-7.4h174.3v1.6h-174.3c-3.8 0-6.9 2.6-6.9 5.7v25.4z" fill="#037dae"/><path d="m526.4 182.4h-22c-4.1 0-7.4-3.3-7.4-7.4v-18h1.6v18c0 3.2 2.6 5.7 5.7 5.7h22v1.7z" fill="#037dae"/><path d="m681 42.1h-2v-6.3c0-19.7 19.5-35.8 43.5-35.8h71.7v1.6h-71.7c-22.9 0-41.5 15.3-41.5 34.2z" fill="#037dae"/><path d="m790 53.1-11.6-33-11.7 33-11.7-27-7.1 16.3h-67.9v-1.6h66.5l8.5-19.5 11.7 27 11.7-33 11.6 33 11.7-26.9 13.3 27.7 7.6-8.1 52.5-.1v-6.4c0-18-17.8-32.7-39.7-32.7h-68.6v-1.6h68.6c23 0 41.7 15.4 41.7 34.3v8l-53.5.1-9.1 9.8-12.7-26.4z" fill="#037dae"/><ellipse cx="185.1" cy="251.6" fill="#fff" rx="48.8" ry="35.9"/><path d="m185.1 288.5c-27.5 0-49.9-16.6-49.9-37s22.4-37 49.9-37 49.9 16.6 49.9 37c0 20.5-22.4 37-49.9 37zm0-71.7c-26.3 0-47.7 15.6-47.7 34.8s21.4 34.8 47.7 34.8 47.7-15.6 47.7-34.8-21.4-34.8-47.7-34.8z" fill="#097dae"/><path d="m161.3 245.2v15.6l25.1 12.8 24.4-12.3v-16.1z" fill="#415364"/><path d="m186.4 274.6-25.9-13.2v-17h51.2v17.4zm-24.3-14.3 24.3 12.4 23.6-12v-14.8h-47.9z" fill="#fff"/><path d="m151.1 245.2 35.4-17.4 35.3 17.4-35.3 17.3z" fill="#415364"/><path d="m186.5 263.4-37.2-18.2 37.2-18.2 37.2 18.2zm-33.5-18.2 33.5 16.4 33.5-16.4-33.5-16.4z" fill="#fff"/><path d="m172.8 277.8h-9.2l3.6-8.1v-17l18.4-8.1.9 2-17.1 7.5v16zm-5.8-2.1h2.5l-1.2-2.8z" fill="#097dae"/><ellipse cx="186.2" cy="245.6" fill="#fff" rx="3.1" ry="1.2"/><ellipse cx="251" cy="202.1" fill="#fff" rx="64.8" ry="52.2"/><path d="m251 255.4c-36.3 0-65.9-23.9-65.9-53.3s29.5-53.3 65.9-53.3 65.9 23.9 65.9 53.3c-.1 29.4-29.6 53.3-65.9 53.3zm0-104.3c-35.1 0-63.7 22.9-63.7 51.1s28.6 51.1 63.7 51.1 63.7-22.9 63.7-51.1-28.6-51.1-63.7-51.1z" fill="#097dae"/><path d="m236.6 224.3c-.4-2.5-2.6-4.5-5.3-4.5-2.1 0-4 1.2-4.8 3-.2-.1-.4-.2-.5-.3v-17.7c0-.6-.5-1.1-1.1-1.1s-1.1.5-1.1 1.1v17.2c-2.4 0-4.3 1.9-4.3 4.3s1.9 4.3 4.3 4.3h11.8c1.8 0 3.2-1.4 3.2-3.2 0-1.4-.9-2.6-2.2-3.1zm-1 4.2h-11.8c-1.2 0-2.2-1-2.2-2.2s1-2.2 2.2-2.2c1 0 1.9.6 2.2 1.5.2.5.7.8 1.2.7s.9-.5.9-1.1c0-1.8 1.4-3.2 3.2-3.2s3.2 1.4 3.2 3.2c0 .6.5 1.1 1.1 1.1s1.1.5 1.1 1.1c-.1.6-.5 1.1-1.1 1.1z" fill="#097dae"/><path d="m282.9 174.7h-20.4c-.6 0-1.1.5-1.1 1.1s.5 1.1 1.1 1.1h19.3v23.2l-29.4-29.4c-.2-.2-.5-.3-.8-.3s-.6.1-.8.3l-29.3 29.4v-23.2h11.8c.6 0 1.1-.5 1.1-1.1v-4.3c0-.6-.5-1.1-1.1-1.1h-1.1v-2.2h6.5v2.2h-1.1c-.6 0-1.1.5-1.1 1.1v4.3c0 .6.5 1.1 1.1 1.1h3.2c.6 0 1.1-.5 1.1-1.1s-.5-1.1-1.1-1.1h-2v-2.2h1.1c.6 0 1.1-.5 1.1-1.1v-4.3c0-.6-.5-1.1-1.1-1.1h-8.6c-.6 0-1.1.5-1.1 1.1v4.3c0 .6.5 1.1 1.1 1.1h1.1v2.2h-11.8c-.3 0-.6.1-.8.3s-.3.5-.3.8v26.9c0 .4.3.8.7 1 .1.1.3.1.4.1.3 0 .6-.1.8-.3l30.4-30.4 30.4 30.4c.2.2.5.3.8.3.1 0 .3 0 .4-.1.4-.2.7-.6.7-1v-26.9c-.1-.6-.6-1.1-1.2-1.1z" fill="#097dae"/><path d="m279.7 222v-17.2c0-.6-.5-1.1-1.1-1.1s-1.1.5-1.1 1.1v17.7c-.2.1-.4.2-.5.3-.9-1.8-2.7-3-4.8-3-2.7 0-4.9 1.9-5.3 4.5-1.3.4-2.2 1.6-2.2 3.1 0 .4.1.7.2 1.1h-18.5c-.6 0-1.1.5-1.1 1.1s.5 1.1 1.1 1.1h33.3c2.4 0 4.3-1.9 4.3-4.3s-2-4.4-4.3-4.4zm0 6.5h-11.9c-.6 0-1.1-.5-1.1-1.1s.5-1.1 1.1-1.1 1.1-.5 1.1-1.1c0-1.8 1.4-3.2 3.2-3.2s3.2 1.4 3.2 3.2c0 .5.4 1 .9 1.1s1-.2 1.2-.7c.3-.9 1.2-1.5 2.2-1.5 1.2 0 2.2 1 2.2 2.2s-1 2.2-2.1 2.2z" fill="#097dae"/><path d="m256 187.6c0-2.4-1.9-4.3-4.3-4.3s-4.3 1.9-4.3 4.3 1.9 4.3 4.3 4.3 4.3-1.9 4.3-4.3zm-6.5 0c0-1.2 1-2.2 2.2-2.2s2.2 1 2.2 2.2-1 2.2-2.2 2.2-2.2-1-2.2-2.2z" fill="#097dae"/><path d="m272.1 202.7h-8.6c-.6 0-1.1.5-1.1 1.1v11.8h-1.1c-.6 0-1.1.5-1.1 1.1s.5 1.1 1.1 1.1h12.9c.6 0 1.1-.5 1.1-1.1s-.5-1.1-1.1-1.1h-1.1v-11.8c.1-.6-.4-1.1-1-1.1zm-1 12.9h-6.5v-4.3h6.5zm0-6.5h-6.5v-4.3h6.5z" fill="#097dae"/><path d="m262.5 225.3c0-.6-.5-1.1-1.1-1.1h-3.2v-20.4c0-.6-.5-1.1-1.1-1.1h-10.8c-.6 0-1.1.5-1.1 1.1v20.4h-3.2c-.6 0-1.1.5-1.1 1.1v4.3c0 .6.5 1.1 1.1 1.1s1.1-.5 1.1-1.1v-3.2h18.3c.6-.1 1.1-.5 1.1-1.1zm-6.5-11.9h-1.1c-.6 0-1.1.5-1.1 1.1s.5 1.1 1.1 1.1h1.1v8.6h-8.6v-19.4h8.6z" fill="#097dae"/><path d="m239.9 202.7h-8.6c-.6 0-1.1.5-1.1 1.1v11.8h-1.1c-.6 0-1.1.5-1.1 1.1s.5 1.1 1.1 1.1h12.9c.6 0 1.1-.5 1.1-1.1s-.5-1.1-1.1-1.1h-1.1v-11.8c0-.6-.4-1.1-1-1.1zm-1.1 12.9h-6.5v-4.3h6.5zm0-6.5h-6.5v-4.3h6.5z" fill="#097dae"/><ellipse cx="287.3" cy="277.8" fill="#fff" rx="52.2" ry="38.3"/><path d="m287.3 317.2c-29.4 0-53.3-17.7-53.3-39.4s23.9-39.4 53.3-39.4 53.3 17.7 53.3 39.4c-.1 21.8-23.9 39.4-53.3 39.4zm0-76.6c-28.2 0-51.1 16.7-51.1 37.2s22.9 37.2 51.1 37.2 51.1-16.7 51.1-37.2-22.9-37.2-51.1-37.2z" fill="#097dae"/><path d="m292.5 316.1h3.4c-.2-.1-.3-.3-.4-.4-1 .1-2 .2-3.1.3 0 0 0 0 .1.1z" fill="#037dae"/><path d="m339.5 277.8c0-21.2-23.4-38.3-52.2-38.3s-52.2 17.2-52.2 38.3c0 13.1 8.9 24.6 22.6 31.6 3.4-13.9 15.7-23.6 30.1-23.6 2.3 0 4.6.3 6.9.8 8.1 1.8 15 6.7 19.4 13.7 1.7 2.7 2.9 5.6 3.7 8.6 13.1-7 21.7-18.3 21.7-31.1zm-87.9 6.3-1.9-1.6c1.1-1.3 2.3-2.5 3.5-3.6l1.7 1.8c-1.2 1.1-2.3 2.2-3.3 3.4zm8.6-7.7-1.4-2c1.4-1 2.8-1.9 4.2-2.7l1.2 2.1c-1.3.8-2.7 1.7-4 2.6zm10.3-5.5-.9-2.3c1.5-.6 3.1-1.1 4.8-1.6l.6 2.4c-1.6.4-3.1.9-4.5 1.5zm29.2-1.6-4.6-.2-5.5 10.3h-3.2c-.8 0-1.4-.6-1.4-1.4v-.1l2.6-9h-4.9l-2 3h-2.1c-.7 0-1.2-.6-1.2-1.2v-9.4c0-.7.6-1.2 1.2-1.2h2.1l2 3h4.9l-2.6-8.9v-.3c0-.8.6-1.4 1.4-1.4h3.2l5.5 10.2 4.6-.2c1 0 1.8.3 2.5 1 .7.6 1 1.5 1 2.4 0 1.9-1.6 3.4-3.5 3.4zm9.2 3.2c-1.4-.7-2.9-1.3-4.3-1.8l.8-2.3c1.6.6 3.1 1.2 4.6 2zm9.7 6.3c-1.2-1-2.5-2-3.8-2.8l1.4-2c1.4.9 2.7 1.9 4 3zm7.9 8.4c-.9-1.3-1.9-2.5-3-3.7l1.8-1.7c1.1 1.2 2.2 2.5 3.2 3.9z" fill="none"/><path d="m299.7 264.3-5.6.2-5.5-10.2h-1.7l3 10.4-8.1.1-1.9-2.9h-.8v9.5l2.8-4.2 8 .1-3 10.5h1.7l5.6-10.3 5.6.2c1 0 1.7-.7 1.7-1.6 0-.4-.2-.8-.5-1.1-.3-.5-.8-.7-1.3-.7zm.1 2.2-6.3-.2-4.7 8.7 2.6-8.9-10.1-.1-1.1 1.6v-3.5l1.1 1.6 10.1-.1-2.6-8.7 4.7 8.7 6.3-.2c.2 0 .4.1.5.2s.2.2.2.3c-.1.3-.4.6-.7.6z" fill="none"/><path d="m294.2 289c-2.1-.5-4.2-.7-6.4-.7-.7 0-1.4 0-2.2.1h-.2l-.1.2c-1.4 1.5-2.1 3.2-2.4 5.3-.1.8-.2 1.6-.3 2.2-.4 2.4-.4 2.8.8 3.4 1.5.7 2.4.8 3.4.9.7.1 1.4.1 2.2.4 2 .6 2.1 3.2 1.9 5.6v.4l.1.6c0 .2.7 4.8 4.4 8.3 7.3-.8 14.1-2.8 20.1-5.6-.7-2.9-1.9-5.8-3.6-8.4-3.9-6.5-10.3-11-17.7-12.7z" fill="none"/><path d="m288.6 307.9c-.2-.5-.1-1.2-.1-1.8.1-1 .1-2.1-.1-2.7l-.1-.3-.3-.1c-.5-.1-1-.2-1.5-.2-1-.1-2.3-.2-4.1-1.1-3-1.3-2.7-3.5-2.3-6 .1-.6.2-1.3.3-2.1.2-1.4.5-2.6 1.1-3.7l.6-1.1-1.2.3c-9.8 2.4-17.7 9.9-20.5 19.7l-.2.5.6.1c3 .7 6.4 2 7 3.9 6 1.8 12.6 2.8 19.5 2.8 1.7 0 3.4-.1 5.1-.2-2.7-3.2-3.5-6.8-3.8-8z" fill="none"/><path d="m299.7 265.4-6.3.2-4.6-8.7 2.6 8.8-10.1.1-1.1-1.6v3.5l1.1-1.6 10.1.1-2.6 8.9 4.7-8.7 6.3.2c.3 0 .6-.3.6-.5s-.1-.3-.2-.3c-.1-.3-.3-.4-.5-.4z" fill="none"/><path d="m269.5 268.6.9 2.3c1.5-.6 3-1.1 4.5-1.5l-.6-2.4c-1.6.5-3.2 1-4.8 1.6z" fill="#415364"/><path d="m258.8 274.4 1.4 2c1.3-.9 2.6-1.7 4-2.5l-1.2-2.1c-1.4.7-2.8 1.6-4.2 2.6z" fill="#415364"/><path d="m249.8 282.5 1.9 1.6c1-1.2 2.1-2.3 3.3-3.4l-1.7-1.8c-1.3 1.1-2.4 2.3-3.5 3.6z" fill="#415364"/><path d="m323.5 283.6c1 1.2 2 2.4 3 3.7l2-1.4c-1-1.3-2.1-2.7-3.2-3.9z" fill="#415364"/><path d="m314.8 275.9c1.3.9 2.6 1.8 3.8 2.8l1.6-1.9c-1.3-1.1-2.6-2.1-4-3z" fill="#415364"/><path d="m304.5 270.6c1.5.5 2.9 1.2 4.3 1.8l1.1-2.2c-1.5-.7-3-1.4-4.6-2z" fill="#415364"/><path d="m299.7 262.6-4.6.2-5.5-10.2h-3.2c-.8 0-1.4.6-1.4 1.4v.1l2.6 8.9h-4.9l-2-3h-2.1c-.7 0-1.2.6-1.2 1.2v9.4c0 .7.6 1.2 1.2 1.2h2.1l2-3h4.9l-2.6 9v.1c0 .8.6 1.4 1.4 1.4h3.2l5.5-10.3 4.6.2c1.9 0 3.5-1.5 3.5-3.3 0-.9-.4-1.7-1-2.4-.7-.6-1.6-.9-2.5-.9zm.1 5-5.6-.2-5.6 10.3h-1.7l3-10.5-8-.1-2.8 4.2v-9.4h.8l1.9 2.9 8.1-.1-3-10.4h1.7l5.5 10.2 5.6-.2c.5 0 1 .2 1.3.5s.5.7.5 1.1c0 .9-.8 1.7-1.7 1.7z" fill="#415364"/><path d="m294.7 286.6c-2.3-.5-4.6-.8-6.9-.8-14.4 0-26.6 9.7-30.1 23.6 3.1 1.6 6.5 2.9 10.1 4-.6-1.9-4-3.2-7-3.9l-.6-.1.2-.5c2.9-9.7 10.7-17.3 20.5-19.7l1.2-.3-.6 1.1c-.6 1.1-.9 2.3-1.1 3.7-.1.8-.2 1.6-.3 2.1-.4 2.5-.7 4.7 2.3 6 1.8.8 3.1.9 4.1 1.1.5.1 1 .1 1.5.2l.3.1.1.3c.2.6.1 1.7.1 2.7 0 .7-.1 1.4.1 1.8v.1c.2 1 1 4.6 3.7 7.9 1-.1 2.1-.2 3.1-.3-3.7-3.5-4.4-8.1-4.4-8.3l-.1-.6v-.4c.1-2.4.1-4.9-1.9-5.6-.8-.3-1.6-.3-2.2-.4-1-.1-1.9-.2-3.4-.9-1.3-.6-1.2-1-.8-3.4.1-.7.2-1.4.3-2.2.2-2.1 1-3.8 2.4-5.3l.1-.2h.2c.8-.1 1.5-.1 2.2-.1 2.1 0 4.3.2 6.4.7 7.4 1.7 13.8 6.2 17.8 12.7 1.6 2.6 2.8 5.4 3.6 8.4.8-.4 1.5-.7 2.2-1.1-.8-3-2-5.9-3.7-8.6-4.4-7.1-11.3-11.9-19.4-13.8z" fill="#037dae"/><path d="m1508 169.5-7.7.3-7.6-14.1h-2.4l4.2 14.4-11.1.1-2.6-3.9h-1.2v13.1l3.8-5.8 11.1.1-4.2 14.5h2.3l7.7-14.2 7.8.3c1.3 0 2.4-1 2.4-2.3 0-.6-.2-1.1-.7-1.6-.5-.6-1.1-.9-1.8-.9zm.1 3-8.7-.3-6.5 12 3.5-12.2-13.9-.1-1.5 2.3v-4.8l1.5 2.2 13.9-.1-3.5-12.1 6.4 12 8.7-.3c.3 0 .5.1.7.3.1.1.2.3.2.5 0 .3-.4.6-.8.6z" fill="none"/><path d="m1508 171-8.7.3-6.4-12 3.5 12.1-13.9.1-1.5-2.2v4.8l1.5-2.3 13.9.1-3.5 12.2 6.5-12 8.7.3c.4 0 .9-.4.9-.8 0-.2-.1-.4-.2-.5-.3 0-.5-.1-.8-.1z" fill="none"/><path d="m1462.3 176.5 1.3 3.1c2-.8 4.1-1.5 6.2-2.1l-.9-3.3c-2.3.7-4.5 1.5-6.6 2.3z" fill="#415364"/><path d="m1540.9 196.1c1.4 1.6 2.8 3.3 4.1 5l2.7-2c-1.4-1.9-2.8-3.7-4.4-5.4z" fill="#415364"/><path d="m1528.8 185.6c1.8 1.2 3.5 2.5 5.2 3.9l2.2-2.6c-1.8-1.5-3.6-2.9-5.5-4.2z" fill="#415364"/><path d="m1514.6 178.3c2 .8 4 1.6 6 2.5l1.5-3c-2.1-1-4.2-1.9-6.4-2.7z" fill="#415364"/><path d="m1507.9 167.2-6.3.2-7.6-14.1h-4.4c-1 0-1.9.9-1.9 1.9v.2l3.6 12.3-6.8.1-2.7-4.1h-2.9c-.9 0-1.7.8-1.7 1.7v12.9c0 .9.8 1.7 1.7 1.7h2.9l2.8-4.2h6.7l-3.6 12.4v.2c0 1 .9 1.9 1.9 1.9h4.4l7.6-14.2 6.4.2c2.6 0 4.8-2.1 4.8-4.6 0-1.2-.5-2.4-1.4-3.3-1-.8-2.1-1.2-3.5-1.2zm.2 6.8-7.8-.3-7.7 14.2h-2.3l4.2-14.5-11.1-.1-3.8 5.8v-13.1h1.2l2.6 3.9 11.1-.1-4.2-14.4h2.4l7.6 14.1 7.7-.3c.7 0 1.3.2 1.8.7.4.4.7 1 .7 1.6-.1 1.5-1.1 2.5-2.4 2.5z" fill="#415364"/><path d="m1346.6 234.6c0-16.5-8.3-29.8-18.4-29.8-10.2 0-18.4 13.4-18.4 29.8 0 4.5.6 8.7 1.7 12.5h33.5c.9-3.7 1.6-8 1.6-12.5z" fill="#fff"/><path d="m1345.5 248h-34.7l-.2-.6c-1.2-4-1.7-8.3-1.7-12.8 0-16.9 8.6-30.7 19.3-30.7s19.3 13.8 19.3 30.7c0 4.4-.6 8.7-1.7 12.8zm-33.5-1.6h32.2c1-3.7 1.5-7.6 1.5-11.7 0-16-7.9-29-17.6-29s-17.6 13-17.6 29c0 4 .5 8 1.5 11.7z" fill="#415364"/><path d="m1357.5 287.4-9.3-40.9c-.1-.2-1-4.1-4.2-7.1-4.9-2.5-10.7-3.1-16.1-3.1s-10.9.8-15.9 2.7c-.1 0 0 0 0 0-.4.1-.8.3-1.2.4-3.2 2.9-4.1 6.8-4.1 7l-4.1 17.4-4.8-24.3c-.1-.8-1.1-7.8-9.8-10.1l-7.7-2.6v-8.5c-2 1.2-4.3 1.9-6.7 1.9s-4.6-.7-6.6-1.9v8.5l-7.7 2.6c-8.7 2.3-9.7 9.2-9.8 10.1l-8.2 41.7v.3l.4 5.1-.4 2.9c-.2 1.2.2 2.5.9 3.4.8 1 1.9 1.6 3.1 1.8h.6c1 0 2-.3 2.8-1 1-.7 1.6-1.8 1.8-3l.8-3.8 2.8-5.1c.1-.1.1-.2.1-.3l4-20.2v26.2 69.6c-.5.3-.9.6-1.3 1-2.1 2.3-2 5.9-2 6 0 .6.5 1 1.1 1h14.4c.6 0 1.1-.5 1.1-1.1v-6.6l2.2-41.7 2.2 41.7v6.6c0 .6.5 1.1 1.1 1.1h14.4c.6 0 1.1-.4 1.1-1 0-.2.2-3.7-2-6-.4-.4-.8-.8-1.3-1v-69.6-26.2l4 20.2c0 .1.1.2.1.3l2.8 5.1.8 3.8c.2 1.2.8 2.3 1.8 3 .8.6 1.8 1 2.8 1h.6c1.2-.2 2.3-.8 3.1-1.8s1.1-2.2.9-3.4l-.4-2.8 9.7-29.1c.2.2.5.3.8.4l.3 4.4c-8.1 12.6-8.2 51.8-8.2 53.5 0 .6.5 1.1 1.1 1.1h6.6c.1 4 .7 19 4.5 39.9-.1.8-.9 4.5-4.4 6.6-.4.3-.6.8-.5 1.2.1.5.6.8 1 .8h21.7c.5 0 .9-.3 1-.8s-.1-1-.5-1.2c-3.4-2.1-4.2-5.8-4.4-6.6 3.8-20.8 4.4-35.8 4.5-39.9h6.6c.6 0 1.1-.5 1.1-1.1 0-1.7-.1-40.9-8.2-53.5l.3-4.4c.3-.1.5-.2.7-.4l9.6 31.6c.3 1.1.9 2 1.9 2.7.7.4 1.5.7 2.3.7.3 0 .6 0 1-.1 1.1-.3 2.1-.9 2.7-1.9.7-.9.9-2 .6-3.2z" fill="#415364"/><path d="m1243.9 286h5.9l1.7-3h-7.7z" fill="#fff"/><path d="m1251.8 240.2v.1l-7.9 40.5h8.5l5.9-29.9-5-14.4c-1.3 1.9-1.5 3.6-1.5 3.7z" fill="#fff"/><path d="m1243.5 290.3c-.1.7.1 1.3.5 1.8s1 .9 1.6.9c.7.1 1.3-.1 1.8-.5s.9-1 .9-1.6v-.1l.6-2.6h-5.2z" fill="#fff"/><path d="m1269.7 233.5-2.1-4.1-2.8.9.2 5.3z" fill="#fff"/><path d="m1260.4 250.5v.1.1.1 36.3h12.2v-47.8l-1.9-3.7-6.2 2.8c-.1.1-.3.1-.5.1s-.4-.1-.6-.2c-.3-.2-.5-.5-.5-.9l-.3-6.2-2.6.9h-.1c-2.3.6-3.9 1.5-5.1 2.6l5.6 15.8c0-.1 0-.1 0 0z" fill="#fff"/><path d="m1286 359.2h-7.9v4.5h12.1c-.1-1-.4-2.4-1.3-3.4-.7-.8-1.7-1.1-2.9-1.1z" fill="#fff"/><path d="m1287.4 232-2.7-.9-.3 6.2c0 .4-.2.7-.5.9-.2.1-.4.2-.6.2s-.3 0-.5-.1l-6.2-2.8-1.9 3.7v47.8h12.2v-36.3s0 0 0-.1v-.1-.1s0 0 0-.1l5.5-15.8c-1-1-2.7-1.9-5-2.5z" fill="#fff"/><path d="m1287 289.2h-26.5v67.8h9l3.2-61.7c0-.6.5-1.1 1.1-1 .6 0 1 .5 1 1l3.2 61.7h9z" fill="#fff"/><path d="m1258.6 360.3c-.9 1-1.2 2.4-1.3 3.4h12.1v-4.5h-7.9c-1.3 0-2.2.3-2.9 1.1z" fill="#fff"/><path d="m1295.7 240.3v-.1c0-.1-.2-1.9-1.5-3.7l-5 14.4 5.9 29.9h8.5z" fill="#fff"/><path d="m1273.7 227.5c-1.6 0-3.1-.5-4.5-1.4v1.7l4.5 8.7 4.5-8.7v-1.7c-1.4.9-2.9 1.4-4.5 1.4z" fill="#fff"/><path d="m1277.7 233.5 4.6 2.1.2-5.3-2.8-.9z" fill="#fff"/><path d="m1303.8 283h-7.7l1.6 3h5.9z" fill="#fff"/><path d="m1303.6 288.2h-5.2l.6 2.6v.1c.1.7.4 1.2.9 1.6s1.2.6 1.8.5c.7-.1 1.2-.4 1.6-.9s.6-1.2.5-1.8z" fill="#fff"/><path d="m1319.6 363.6h6.7v-5.3h-3.9c-.3 1.2-1 3.4-2.8 5.3z" fill="#fff"/><path d="m1307.5 252.3-3.8 17.2 2.1 10.6 7.9-23.9c-.3-.4-.5-.9-.7-1.5z" fill="#fcebe6"/><path d="m1322.4 356.1h3.9v-38.8h-8.3c.2 4 .7 18.5 4.4 38.8z" fill="#fff"/><path d="m1328.5 356.1h3.9c3.7-20.3 4.3-34.8 4.4-38.8h-8.3z" fill="#fff"/><path d="m1328.5 358.3v5.3h6.7c-1.8-1.9-2.5-4.1-2.8-5.3z" fill="#fff"/><path d="m1333.3 236.5 6.5 2.4c-.8 4.3-5.5 6.5-12.1 6.5s-11.8-2.2-12.7-6.5l6.5-2.4c.8-.2 1.8-1 1.8-1.8v-7c1.4.7 2.8 1.1 4.3 1.1s3-.4 4.3-1.1v7c.1.9.6 1.6 1.4 1.8z" fill="#fff"/><path d="m1327.7 246.2c-7.6 0-12.6-2.7-13.5-7.1l-.1-.7 7.2-2.7c.6-.2 1.2-.7 1.2-1v-8.3l1.2.6c2.6 1.3 5.4 1.3 7.9 0l1.2-.6v8.3c0 .5.3.9.7 1h.1l7.2 2.6-.1.7c-1 4.6-5.7 7.2-13 7.2zm-11.7-6.8c1.1 3.2 5.4 5.1 11.7 5.1 6.1 0 10.1-1.9 11.2-5.1l-5.8-2.1c-1.1-.3-1.9-1.4-1.9-2.6v-5.7c-2.3.8-4.7.8-7 0v5.7c0 1.3-1.4 2.3-2.4 2.6z" fill="#415364"/><path d="m1282.6 230.3-.3 5.3-4.6-2.1 2.1-4.1z" fill="#30b381"/><path d="m1273.7 236.5-5-9.5v-1.9c1.5 1 3.2 1.5 5 1.5s3.5-.5 4.9-1.5v1.9z" fill="#fff"/><path d="m1273.7 238.3-5.8-11.1v-3.6l1.3.8c1.4.9 2.9 1.4 4.5 1.4s3.1-.5 4.5-1.4l1.3-.8v3.6zm-4.1-11.5 4.1 8 4.1-8v-.3c-2.6 1.2-5.6 1.2-8.3 0v.3z" fill="#415364"/><path d="m1267.6 229.4 2.1 4.1-4.6 2.1-.2-5.3z" fill="#30b381"/><path d="m1248.5 290.8s-.1.1 0 0c-.1.7-.4 1.3-1 1.7-.5.4-1.2.6-1.8.5-.7-.1-1.2-.4-1.6-.9s-.6-1.2-.5-1.8l.3-2.1h5.2z" fill="#fff"/><path d="m1249.7 286h-5.8l-.3-3h7.8z" fill="#30b381"/><path d="m1252.3 280.8h-8.5l7.9-40.5v-.1c0-.1.2-1.9 1.5-3.7l5 14.4z" fill="#00a0df"/><path d="m1254.9 234.6c1.2-1.1 2.8-2 5.1-2.6h.1l2.6-.9.3 6.2c0 .4.2.7.5.9.2.1.4.2.6.2s.3 0 .5-.1l6.2-2.8 1.9 3.7v47.8h-12.2v-36.3s0 0 0-.1v-.1-.1s0 0 0-.1z" fill="#00a0df"/><path d="m1269.4 363.6h-12.1c.1-1 .4-2.4 1.3-3.4.7-.7 1.7-1.1 2.9-1.1h7.9z" fill="#00a0df"/><path d="m1274.8 295.3c0-.5-.5-1-1-1-.6 0-1.1.4-1.1 1l-3.2 61.7h-9v-67.8h26.5v67.8h-9z" fill="#c8c8c8"/><path d="m1290.2 363.6h-12.1v-4.5h7.9c1.3 0 2.2.4 2.9 1.1.9 1.1 1.2 2.5 1.3 3.4z" fill="#00a0df"/><path d="m1287 250.4v.2.1.1 36.3h-12.2v-47.8l1.9-3.7 6.2 2.8c.1.1.3.1.5.1s.4-.1.6-.2c.3-.2.5-.5.5-.9l.3-6.2 2.6.9h.1c2.3.6 3.9 1.5 5.1 2.6z" fill="#00a0df"/><path d="m1295.1 280.8-5.9-29.9 5-14.4c1.3 1.9 1.5 3.6 1.5 3.7v.1l7.9 40.5z" fill="#00a0df"/><path d="m1297.7 286-1.6-3h7.7l-.2 3z" fill="#30b381"/><path d="m1303.4 292.1c-.4.5-1 .9-1.6.9-.7.1-1.3-.1-1.8-.5s-.9-1-.9-1.6v-.1l-.6-2.6h5.2l.3 2.1c0 .6-.2 1.3-.6 1.8z" fill="#fff"/><path d="m1305.7 280.2-2.1-10.6 3.8-17.2 5.5 2.5c.2.5.4 1 .7 1.5z" fill="#fff"/><path d="m1326.4 363.6h-6.7c1.8-1.9 2.5-4.1 2.8-5.3h3.9z" fill="#30b381"/><path d="m1326.4 356.1h-3.9c-3.7-20.3-4.3-34.8-4.4-38.8h8.3z" fill="#fff"/><path d="m1335.3 363.6h-6.7v-5.3h3.9c.3 1.2 1 3.4 2.8 5.3z" fill="#30b381"/><path d="m1332.5 356.1h-3.9v-38.8h8.3c-.2 4-.7 18.5-4.4 38.8z" fill="#fff"/><path d="m1355.1 289.8c-.3.5-.8.8-1.3.9-.6.1-1.1 0-1.6-.3s-.8-.8-.9-1.3v-.1l-10-32.8c.3-.4.5-.9.7-1.5l5.5-2.5 8 35.9c0 .7-.1 1.3-.4 1.7z" fill="#fff"/><path d="m1241.3 166.3h172.1v200h-172.1z" fill="none"/><ellipse cx="1327.8" cy="221.8" fill="#fff" rx="9.1" ry="11.9"/><path d="m1327.8 234.5c-5.5 0-9.9-5.7-9.9-12.7s4.5-12.7 9.9-12.7 9.9 5.7 9.9 12.7-4.4 12.7-9.9 12.7zm0-23.7c-4.6 0-8.3 5-8.3 11s3.7 11 8.3 11 8.3-5 8.3-11-3.7-11-8.3-11z" fill="#415364"/><path d="m1319.6 223.1-.6-1.5c2.7-1.1 3.9-2.4 4.8-5.2l.4-1.3.9 1.1c2.5 2.9 7.1 3.8 10.6 2.3l.7 1.5c-3.8 1.7-8.4.9-11.6-1.8-1 2.3-2.5 3.7-5.2 4.9z" fill="#415364"/><ellipse cx="1273.7" cy="214.4" fill="#fff" rx="10.6" ry="12.1"/><path d="m1273.7 227.4c-6.3 0-11.4-5.8-11.4-12.9s5.1-12.9 11.4-12.9 11.4 5.8 11.4 12.9-5.1 12.9-11.4 12.9zm0-24.3c-5.4 0-9.8 5.1-9.8 11.3s4.4 11.3 9.8 11.3 9.8-5.1 9.8-11.3-4.4-11.3-9.8-11.3z" fill="#415364"/><path d="m1317.8 258.1.3 4.4h18.7l.3-4.4z" fill="#30b381"/><path d="m1318.9 285.3-3.7 3.3-.2 1.7v.1l8.6 24.9v.1c.1.3.3.6.5.8.3.2.6.2.9.2.3-.1.6-.3.8-.5.2-.3.2-.6.2-.9z" fill="#736357"/><path d="m1313.9 277.7-3.9-1.4c-.2 1.9-1.1 4.7-5.3 4.7s-5.1-2.8-5.3-4.7c0 0-3.9 1.3-3.9 1.4-3.5.8-4.8 3.7-5.2 4.9l5.4 4.8c.2.2.3.4.3.6l.6 5h16.2l.6-5c0-.2.1-.4.3-.6l5.4-4.8c-.5-1.2-1.8-4.1-5.2-4.9z" fill="#30b381"/><path d="m1312.5 294.9h-15.7l.2 1.7h15.3z" fill="#e5de9e"/><path d="m1304.6 275.6c-1 0-2-.2-2.9-.6-.1.3-.3.5-.6.7.1 1.8.6 3.4 3.4 3.4s3.4-1.6 3.4-3.4c-.3-.1-.5-.4-.6-.7-.7.4-1.7.6-2.7.6z" fill="#736357"/><path d="m1290.3 285.3-7.2 29.6c-.1.3 0 .6.2.9s.4.5.8.5c.3.1.6 0 .9-.2s.5-.4.5-.8v-.1l8.6-24.9v-.1l-.2-1.7z" fill="#736357"/><path d="m1296.7 298.5c-1.4 2.5-7.8 14.6-8.1 28.3h32.1c-.3-13.7-6.7-25.8-8.1-28.3z" fill="#30b381"/><path d="m1295.9 261.7c0-.5.4-.9 1-.9h5.2l1.6-3.3c.1-.2.2-.3.4-.4.5-.2 1 0 1.3.4l1.6 3.3h5.2c.5 0 .9.4.9.9v1.6c0 3.1-.6 5.8-1.8 7.9h4.9c-.1-7.7-1.9-13.1-5.3-16.2-3.1-2.8-6-2.6-6.5-2.6s-3.5-.2-6.6 2.6c-3.4 3.1-5.1 8.6-5.3 16.2h4.9c-1.1-2.1-1.8-4.7-1.8-7.9.3-.5.3-1 .3-1.6z" fill="#fff"/><path d="m1317.3 272h-7.1l.7-1.2c1.1-2 1.7-4.6 1.7-7.5 0-.4 0-.8 0-1.2v-.3c0-.1-.1-.1-.1-.1h-5.7l-1.9-3.7c0-.1-.1-.1-.2-.1 0 0 0 0-.1.1l-.5 1-1.4 2.7h-5.7c-.1 0-.1.1-.1.1v.5 1c0 2.9.6 5.5 1.7 7.5l.7 1.2h-7.1v-.8c.1-7.9 2-13.5 5.5-16.8 1.4-1.3 3.7-2.8 6.9-2.8h.2.1.1c3.1-.1 5.5 1.5 7 2.8 3.6 3.3 5.4 8.9 5.6 16.8zm-4.4-1.6h2.7c-.1-3.6-.6-6.7-1.5-9.2v.5 1.6c.1 2.7-.4 5.1-1.2 7.1zm-19.3 0h2.7c-.9-2-1.3-4.4-1.3-7.1 0-.6 0-1.1 0-1.6v-.5c-.7 2.5-1.2 5.6-1.4 9.2zm20.3-9.5c-.7-2.2-1.9-4-3.3-5.4-1.8-1.6-3.7-2.4-5.8-2.4h-.1-.1c-2.7-.1-4.7 1.3-5.9 2.4-1.4 1.3-2.5 3.1-3.4 5.3h.1c.3-.5.9-.9 1.5-.9h4.7l1.9-3.8.2.2h.1c.9-.4 1.9-.1 2.4.8l1.4 2.8h4.7c.7.1 1.3.5 1.6 1z" fill="#415364"/><path d="m1307.6 360.6v2.9h7.4c-.5-1.2-1.5-2.9-3.5-2.9z" fill="#e5de9e"/><path d="m1301.6 358.7v-30h-6.4c.1 11.2 2.7 26.4 3.3 30z" fill="#736357"/><path d="m1307.6 358.7h3.1c.6-3.6 3.2-18.8 3.3-30h-6.4z" fill="#736357"/><path d="m1297.7 360.6c-2 0-3 1.7-3.5 2.9h7.4v-2.9z" fill="#e5de9e"/><path d="m1320.5 283.9.3-.2c.3-.2.4-.6.3-.9 0-.2-1.2-5.6-6.7-6.9l-4.9-1.7v-.3c.3-.2.5-.5.8-.7h7.2c.5 0 1-.4 1-1 0-8.7-2-15-5.9-18.6-3.5-3.2-7.2-3.1-7.8-3.1s-4.3-.1-7.8 3.1c-3.9 3.6-5.9 9.9-5.9 18.6 0 .5.4 1 1 1h7.2c.3.3.5.5.8.7v.3l-4.9 1.7c-5.5 1.3-6.7 6.6-6.7 6.9-.1.3 0 .7.3.9l.3.2-7.4 30.6c-.2.8 0 1.6.4 2.3s1.1 1.2 2 1.4c.2.1.5.1.7.1.6 0 1.2-.2 1.7-.5.7-.4 1.2-1.1 1.4-1.9l7.4-21.3.3 2.8c-1.2 2.1-8.5 15.3-8.5 30.4 0 .5.4 1 1 1h5.7c.1 11.1 2.6 26.1 3.3 30.1-2.9.7-4.3 3.8-4.6 5.5-.1.3 0 .6.2.8s.5.3.7.3h9.6c.3 0 .5-.1.7-.3s.3-.4.3-.7v-35.8h2.3v35.8c0 .3.1.5.3.7s.4.3.7.3h9.6c.3 0 .6-.1.7-.3.2-.2.3-.5.2-.8-.3-1.7-1.7-4.8-4.6-5.5.7-4 3.2-19 3.3-30.1h5.7c.5 0 1-.4 1-1 0-15.1-7.2-28.2-8.5-30.4l.3-2.8 7.4 21.3c.2.8.7 1.5 1.4 1.9.5.3 1.1.5 1.7.5.2 0 .5 0 .7-.1.8-.2 1.5-.7 1.9-1.4s.6-1.5.4-2.4z" fill="#415364"/><path d="m1292.8 271.2c.1-7.6 1.9-13.1 5.3-16.2 3.1-2.8 6.1-2.6 6.6-2.6s3.4-.2 6.5 2.6c3.4 3.1 5.2 8.6 5.3 16.2h-4.9c1.1-2.1 1.8-4.7 1.8-7.9 0-.6 0-1.1 0-1.6s-.4-.9-.9-.9h-5.2l-1.6-3.3c-.2-.5-.8-.7-1.3-.4-.2.1-.3.2-.4.4l-1.6 3.3h-5.2c-.5 0-.9.4-.9.9v1.6c0 3.1.6 5.8 1.8 7.9z" fill="#fff"/><path d="m1297.8 263.3c0-.2 0-.4 0-.6h4.9c.4 0 .7-.2.9-.5l1.1-2.1 1.1 2.1c.2.3.5.5.9.5h4.9v.6c0 5.1-2.1 10.3-6.8 10.3-4.9.1-7-5.1-7-10.3z" fill="#fff"/><path d="m1308.1 275.7c-.1 1.8-.6 3.4-3.4 3.4s-3.4-1.6-3.4-3.4c.3-.1.5-.4.6-.7.9.4 1.8.6 2.9.6 1 0 2-.2 2.9-.6-.1.3.1.6.4.7z" fill="#fff"/><path d="m1294.2 290.4-8.6 24.9v.1c-.1.3-.3.6-.5.8-.3.2-.6.2-.9.2-.3-.1-.6-.3-.8-.5-.2-.3-.2-.6-.2-.9l7.2-29.6 3.7 3.3.1 1.7c0-.1 0-.1 0 0z" fill="#fff"/><path d="m1295.2 328.7h6.4v30h-3.1c-.6-3.6-3.1-18.8-3.3-30z" fill="#fff"/><path d="m1294.2 363.5c.5-1.2 1.5-2.9 3.5-2.9h3.9v2.9z" fill="#30b381"/><path d="m1315 363.5h-7.4v-2.9h3.9c2 0 3 1.7 3.5 2.9z" fill="#30b381"/><path d="m1310.7 358.7h-3.1v-30h6.4c-.1 11.1-2.7 26.4-3.3 30z" fill="#fff"/><path d="m1320.6 326.8h-32.1c.3-13.7 6.7-25.8 8.1-28.3h15.9c1.4 2.5 7.9 14.6 8.1 28.3z" fill="#30b381"/><path d="m1296.7 294.9h15.8l-.2 1.7h-15.3z" fill="#00a0df"/><path d="m1313.6 287.4c-.2.2-.3.4-.3.6l-.6 5h-16.2l-.6-5c0-.2-.1-.4-.3-.6l-5.4-4.8c.4-1.2 1.7-4.1 5.2-4.9l3.9-1.4c.2 1.9 1.1 4.7 5.3 4.7s5.1-2.8 5.3-4.7c0 0 3.9 1.3 3.9 1.4 3.5.8 4.8 3.7 5.2 4.9z" fill="#30b381"/><path d="m1325.9 315.8c-.2.3-.4.5-.8.5-.3.1-.6 0-.9-.2s-.5-.4-.5-.8v-.1l-8.6-24.9v-.1l.2-1.7 3.7-3.3 7.2 29.6c-.1.4-.2.7-.3 1z" fill="#fff"/><path d="m1339.9 296.1h2.3l2-3.3c.3-.4.9-.6 1.3-.3.1.1.2.2.3.3l2 3.3h8.5c-.6-5.9-3.4-9-8.2-9s-7.6 3.1-8.2 9z" fill="#b79870"/><path d="m1356.5 298.5c0-.2 0-.3 0-.5h-9.1c-.3 0-.6-.2-.8-.4l-1.5-2.4-1.5 2.4c-.2.3-.5.4-.8.4h-2.9v.5c0 5.9 3.7 10.7 8.3 10.7s8.3-4.8 8.3-10.7zm-12.8 2.5c-.2-.2-.3-.4-.3-.7 0-.2.1-.5.3-.7.3-.3 1-.3 1.3 0 .2.2.3.4.3.7 0 .2-.1.5-.3.7s-.4.3-.7.3c-.2-.1-.5-.2-.6-.3zm6.5 5.6c-.5.2-1.2.3-2 .3-.7 0-1.4-.1-2-.3-1.1-.4-1.3-1.1-1.3-1.5 0-.5.4-.9.9-.9.4 0 .8.3.9.6.2.1.7.2 1.4.3.7 0 1.2-.2 1.4-.3.1-.4.5-.6.9-.6.5 0 .9.4.9.9.1.4 0 1.1-1.1 1.5zm2.5-5.7c-.2.2-.4.3-.7.3-.2 0-.5-.1-.7-.3s-.3-.4-.3-.7c0-.2.1-.5.3-.7.3-.3 1-.4 1.3 0 .2.2.3.4.3.7.1.3 0 .6-.2.7z" fill="#d8b4a4"/><path d="m1344.9 310.3v1.2c.2.4 1.6 1.6 3.3 1.6 1.8 0 3.2-1.2 3.3-1.6v-1.2c-1 .4-2.2.7-3.3.7-1.2 0-2.3-.2-3.3-.7z" fill="#d8b4a4"/><path d="m1357.1 313.4-4.2-.8c-.8 1.2-2.8 2.3-4.8 2.3-2.1 0-4-1.1-4.8-2.3 0 0-4.1.8-4.2.8-3.8.6-5 2.6-5.1 2.7l-3.5 6 5.8 2.3 1.6-2.9c.2-.4.6-.6 1.1-.5.4.1.7.5.7.9v14.3h16.7v-14.3c0-.4.3-.8.7-.9s.9.1 1.1.5l1.6 2.9 5.8-2.3s-3.4-6-3.5-6.1c.1 0-1-2-5-2.6z" fill="#f4a04d"/><path d="m1350.9 351v8.1h3.6l.6-8.1z" fill="#d8b4a4"/><path d="m1361.6 325.8 4.4 10.1v.1c0 .1.1.2.3.2.3.1.6.1 1 0 .7-.2 1-.7.9-.9l-3.9-10.6z" fill="#d8b4a4"/><path d="m1339.8 349.1h6.7l.7-7.4c.1-.5.5-.9 1-.8.5 0 .8.4.8.8l.7 7.4h6.7v-10.9h-16.6z" fill="#5576a5"/><path d="m1328.1 335.3v.1c0 .2.4.6.9.8.3.1.7.1 1 0 .2-.1.3-.1.3-.2v-.1l4.4-10.1-2.8-1.1z" fill="#d8b4a4"/><path d="m1350.9 361v2.3h7.3c-.1-.5-.3-1.1-.8-1.6s-1.1-.7-2-.7z" fill="#999"/><path d="m1338.9 361.7c-.4.5-.7 1.1-.8 1.6h7.3v-2.3h-4.5c-.8 0-1.5.2-2 .7z" fill="#999"/><path d="m1341.8 359.1h3.6v-8.1h-4.2z" fill="#d8b4a4"/><path d="m1350.5 304.2c-.4 0-.8.3-.9.6-.2.1-.7.3-1.4.3s-1.2-.2-1.4-.3c-.1-.4-.5-.6-.9-.6-.5 0-.9.4-.9.9 0 .4.2 1.1 1.3 1.5.5.2 1.2.3 2 .3.7 0 1.4-.1 2-.3 1.1-.4 1.3-1.1 1.3-1.5-.2-.5-.6-.9-1.1-.9z" fill="#1c1b1a"/><path d="m1345.3 300.3c0-.2-.1-.5-.3-.7-.3-.3-1-.3-1.3 0-.2.2-.3.4-.3.7 0 .2.1.5.3.7s.4.3.7.3c.2 0 .5-.1.7-.3.1-.2.2-.5.2-.7z" fill="#1c1b1a"/><path d="m1351.4 299.6c-.2.2-.3.4-.3.7 0 .2.1.5.3.7s.4.3.7.3c.2 0 .5-.1.7-.3s.3-.4.3-.7c0-.2-.1-.5-.3-.7-.5-.3-1.1-.3-1.4 0z" fill="#1c1b1a"/><path d="m1362.7 313.8c-1-.9-2.6-1.9-5.3-2.2l-4-.8v-1.5c3-2.2 5-6.2 5-10.8 0-1.8-.2-3.4-.5-4.7.2-.1-.2.1 0 0-.1-.7-.3-1.2-.5-1.8-.2.2.2-.1 0 0-.7-1.9-1.6-3.3-2.7-4.3-.5-.4-.9-.8-1.7-1.2-1.8-1-3.7-1.2-4.9-1.2-1 0-2.4.1-3.8.7-.8.3-1.4.5-2 1.1-.2.1-.4.3-.6.5-.4.4-.9.8-1.2 1.3-.1.2-.3.4-.4.6-.7 1.1-1.4 2.5-1.7 4.3-.2-.2.1.3 0 0-.1.9-.2 1.2-.3 2.1.1.1-.1-.1 0 0-.1.9-.1 1.8-.1 2.8 0 4.6 2 8.6 5 10.8v1.5l-4 .8c-4.8.6-6.3 3.2-6.5 3.8l-3.9 6.8c-.1.2-.2.5-.1.8s.3.5.5.6l1.3.5-1.7 4.5-.5 1.4c-1.1 2.5-1 2.7-1.5 4.2-.5 1.4-.5 2.4.8 3.3l.7.5c.1 0 .2.1.3.1.4.1.8.2 1.1.2s.7-.1 1-.2c.7-.2 1.3-.7 1.5-1.4l4.5-10.2h.1c.4.2.9 0 1.2-.4l.2-.4v24.3c0 .5.4.9.9.9h.4l.6 8.2c-.9.2-1.7.6-2.4 1.2-1.4 1.5-1.4 3.7-1.4 3.8 0 .5.4.9.9.9h9.2c.5 0 .9-.4.9-.9v-13.2h.1c.4 0 .7-.2.8-.5.2.3.5.5.8.5h.1v13.2c0 .5.4.9.9.9h9.2c.5 0 .9-.4.9-.9 0-.1.1-2.3-1.4-3.8-.6-.6-1.4-1.1-2.4-1.2l.6-8.2h.4c.5 0 .9-.4.9-.9v-24.3l.2.4c.2.4.7.6 1.2.4h.1l4.5 10.2c.2.6.8 1.1 1.5 1.4.3.1.6.2 1 .2s.8-.1 1.1-.2c1.6-.5 2.5-2 2.1-3.3l-3.9-10.7 1.3-.5c.3-.1.4-.3.5-.6s.1-.5-.1-.8l-2.5-4.4" fill="#415364"/><path d="m1348.2 287.1c4.8 0 7.7 3.1 8.2 9h-8.5l-2-3.3c-.1-.1-.2-.2-.3-.3-.4-.3-1-.1-1.3.3l-2 3.3h-2.3c.5-5.9 3.3-9 8.2-9z" fill="#fff"/><path d="m1339.8 298.5c0-.2 0-.3 0-.5h2.9c.3 0 .6-.2.8-.4l1.5-2.4 1.5 2.4c.2.3.5.4.8.4h9.1v.5c0 5.9-3.7 10.7-8.3 10.7-4.5 0-8.3-4.8-8.3-10.7z" fill="#fff"/><path d="m1351.5 310.3v1.2c-.2.4-1.6 1.6-3.3 1.6-1.8 0-3.2-1.2-3.3-1.6v-1.2c1 .4 2.2.7 3.3.7s2.2-.2 3.3-.7z" fill="#fff"/><path d="m1330.3 335.9c0 .1 0 .1 0 0-.1.2-.2.3-.3.3-.3.1-.6.1-1 0-.6-.2-.9-.6-.9-.8v-.1l3.9-10.6 2.8 1.1z" fill="#fff"/><path d="m1345.4 363.3h-7.3c.1-.5.3-1.1.8-1.6s1.1-.7 2-.7h4.5z" fill="#00a0df"/><path d="m1341.2 351h4.2v8.1h-3.6z" fill="#fff"/><path d="m1357.4 361.7c.4.5.7 1.1.8 1.6h-7.3v-2.3h4.5c.9 0 1.6.2 2 .7z" fill="#00a0df"/><path d="m1350.9 359.1v-8.1h4.3l-.7 8.1z" fill="#fff"/><path d="m1356.5 349.1h-6.7l-.7-7.4c0-.4-.4-.8-.8-.8-.5 0-1 .3-1 .8l-.7 7.4h-6.7v-10.9h16.7v10.9z" fill="#30b381"/><path d="m1359.9 324.5-1.6-2.9c-.2-.4-.6-.6-1.1-.5-.4.1-.7.5-.7.9v14.3h-16.7v-14.3c0-.4-.3-.8-.7-.9s-.8.1-1.1.5l-1.6 2.9-5.8-2.3s3.4-6 3.5-6c0-.1 1.3-2.1 5.1-2.7l4.2-.8c.8 1.2 2.8 2.3 4.8 2.3s4-1.1 4.8-2.3c0 0 4.1.8 4.2.8 4 .5 5 2.6 5.1 2.7l3.5 6.1z" fill="#00a0df"/><path d="m1367.4 336.2c-.3.1-.7.1-1 0-.2-.1-.3-.1-.3-.2v-.1l-4.4-10.1 2.8-1.1 3.9 10.6c-.1.2-.4.7-1 .9z" fill="#fff"/><path d="m1362.1 313.2c-2.4-2.1-5.7-2-8.7-2.4" fill="none"/><path d="m1367.8 322.2c-.6-1.3-1.3-2.6-2-3.9" fill="none"/><path d="m906.1 224.4h85.4" fill="none" stroke="#415364" stroke-miterlimit="10" stroke-width="2"/><path d="m906.1 244.1h85.4" fill="none" stroke="#415364" stroke-miterlimit="10" stroke-width="2"/><path d="m906.1 265.5h85.4" fill="none" stroke="#415364" stroke-miterlimit="10" stroke-width="2"/><path d="m923.4 261.6h7.8v7.8h-7.8z" fill="#fff" stroke="#415364" stroke-miterlimit="10" stroke-width="1.7" transform="matrix(.7071 -.7071 .7071 .7071 83.8946 733.4788)"/><path d="m540.4 180.8h106.7" fill="none" stroke="#037dae" stroke-miterlimit="10" stroke-width="2"/><path d="m962.3 185-3.5-2.7c.6-1.8.8-3.7.9-5.5l4.1-1.4c.4-.1.6-.5.5-.9l-1.8-7.6c-.1-.4-.5-.7-.9-.6l-4.3.6c-.9-1.7-2-3.2-3.3-4.6l1.9-3.9c.2-.4 0-.8-.3-1l-6.7-4.1c-.3-.2-.8-.1-1 .2l-2.7 3.5c-1.8-.6-3.7-.8-5.5-.9l-1.4-4.1c-.1-.4-.5-.6-.9-.5l-7.6 1.8c-.4.1-.7.5-.6.9l.6 4.3c-1.7.9-3.2 2-4.6 3.3l-3.9-1.9c-.4-.2-.8 0-1 .3l-4.1 6.7c-.2.3-.1.8.2 1l3.5 2.7c-.6 1.8-.8 3.7-.9 5.5l-4.1 1.4c-.4.1-.6.5-.5.9l1.8 7.6c.1.4.5.7.9.6l4.3-.6c.9 1.7 2 3.2 3.3 4.6l-1.9 3.9c-.2.4 0 .8.3 1l6.7 4.1c.3.2.8.1 1-.2l2.7-3.5c1.8.6 3.7.8 5.5.9l1.4 4.1c.1.4.5.6.9.5l7.6-1.8c.4-.1.7-.5.6-.9l-.6-4.3c1.7-.9 3.2-2 4.6-3.3l3.9 1.9c.4.2.8 0 1-.3l4.1-6.7c.2-.3.1-.8-.2-1zm-4.9 6.3-3.8-1.8c-.3-.1-.7-.1-.9.2-1.5 1.5-3.2 2.7-5 3.6-.3.2-.5.5-.4.8l.6 4.2-6.3 1.5-1.4-4c-.1-.3-.4-.5-.8-.5-2.1 0-4.2-.3-6.1-1-.3-.1-.7 0-.9.3l-2.6 3.4-5.5-3.4 1.8-3.8c.1-.3.1-.7-.2-.9-1.5-1.5-2.7-3.2-3.6-5-.2-.3-.5-.5-.8-.4l-4.2.6-1.5-6.3 4-1.4c.3-.1.5-.4.5-.8 0-2.1.3-4.2 1-6.1.1-.3 0-.7-.3-.9l-3.4-2.6 3.4-5.5 3.8 1.8c.3.1.7.1.9-.2 1.5-1.5 3.2-2.7 5-3.6.3-.2.5-.5.4-.8l-.6-4.2 6.3-1.5 1.4 4c.1.3.4.5.8.5 2.1 0 4.2.3 6.1 1 .3.1.7 0 .9-.3l2.6-3.4 5.5 3.4-1.8 3.8c-.1.3-.1.7.2.9 1.5 1.5 2.7 3.2 3.6 5 .2.3.5.5.8.4l4.2-.6 1.5 6.3-4 1.4c-.3.1-.5.4-.5.8 0 2.1-.3 4.2-1 6.1-.1.3 0 .7.3.9l3.4 2.6z" fill="#415364"/><path d="m948.3 161.6c-3.7-2.3-8.1-3.1-12.3-2.3s-8 3.1-10.6 6.6c-.3.3-.2.8.2 1.1s.8.2 1.1-.2c4.9-6.5 13.8-8.2 20.8-3.9 7.4 4.5 9.7 14.2 5.2 21.6s-14.2 9.7-21.6 5.2c-6.9-4.3-9.5-13-5.9-20.3.2-.4 0-.9-.4-1.1s-.9 0-1.1.4c-1.9 3.8-2.3 8.2-1.1 12.4s3.9 7.7 7.6 10c8.1 5 18.8 2.5 23.8-5.7 5-8.1 2.4-18.8-5.7-23.8z" fill="#415364"/><path d="m966.4 159.1.7 2.6h2l.8-2.6 1.7-.5 2.1 1.7 1.7-1.2-.9-2.5 1-1.4 2.7.1.6-1.9-2.2-1.5v-1.8l2.2-1.5-.6-1.9-2.7.1-1-1.4.9-2.5-1.6-1.2-2.1 1.6-1.7-.6-.7-2.6h-2l-.8 2.6-1.7.5-2.1-1.7-1.7 1.2.9 2.5-1 1.4-2.7-.1-.6 1.9 2.2 1.5v1.8l-2.2 1.5.6 2 2.7-.1 1 1.4-.9 2.5 1.6 1.2 2.1-1.6zm-.1-8.9c.3-1 1.5-1.6 2.5-1.3s1.6 1.5 1.2 2.5c-.3 1-1.5 1.6-2.5 1.3-1-.4-1.5-1.5-1.2-2.5z" fill="none" stroke="#037dae" stroke-miterlimit="10" stroke-width="1.5"/><path d="m938 185.1c-1.8-.2-3.2-.7-4.1-1.6s-1.4-2.2-1.5-3.7h3.2c.1.8.3 1.5.7 1.9s1 .7 1.6.8v-4.7c-1.9-.3-3.2-.8-4-1.6s-1.2-1.9-1.2-3.4c0-1.4.5-2.6 1.4-3.5.9-1 2.2-1.5 3.8-1.7v-2.2h2.1v2.2c1.6.2 2.9.6 3.8 1.5.9.8 1.4 2 1.5 3.6h-3.1c-.2-1.3-.9-2.1-2.1-2.3v4.8c1.9.3 3.3.8 4.1 1.5.9.8 1.3 1.8 1.3 3.2 0 1.6-.5 2.8-1.5 3.8s-2.3 1.5-4 1.7v3.2h-2.1zm-2.1-12.7c0 .6.2 1.1.5 1.4s.9.5 1.6.7v-4.4c-1.4.2-2.1 1-2.1 2.3zm6.5 7.6c0-.6-.2-1.1-.5-1.4s-.9-.5-1.7-.7v4.4c1.4-.2 2.2-1 2.2-2.3z" fill="#037dae" stroke="#b9dbe5" stroke-miterlimit="10" stroke-width=".5"/><path d="m1017.8 182.4h-53.5" fill="none" stroke="#037dae" stroke-miterlimit="10" stroke-width="2"/><path d="m569.3 365.1c.5 0 .8.4.8.8s-.4.8-.8.8-.8-.4-.8-.8.3-.8.8-.8m-8 0c.5 0 .8.4.8.8s-.4.8-.8.8-.8-.4-.8-.8.3-.8.8-.8m-7.8 0c.5 0 .8.4.8.8s-.4.8-.8.8-.8-.4-.8-.8.3-.8.8-.8m15.8-1c-1 0-1.8.8-1.8 1.8s.8 1.8 1.8 1.8 1.8-.8 1.8-1.8-.8-1.8-1.8-1.8zm-8 0c-1 0-1.8.8-1.8 1.8s.8 1.8 1.8 1.8 1.8-.8 1.8-1.8-.8-1.8-1.8-1.8zm-7.8 0c-1 0-1.8.8-1.8 1.8s.8 1.8 1.8 1.8 1.8-.8 1.8-1.8-.8-1.8-1.8-1.8z" fill="#037dae"/><path d="m629.4 365.1c.5 0 .8.4.8.8s-.4.8-.8.8-.8-.4-.8-.8.3-.8.8-.8m-8 0c.5 0 .8.4.8.8s-.4.8-.8.8-.8-.4-.8-.8.3-.8.8-.8m-7.8 0c.5 0 .8.4.8.8s-.4.8-.8.8-.8-.4-.8-.8.3-.8.8-.8m15.8-1c-1 0-1.8.8-1.8 1.8s.8 1.8 1.8 1.8 1.8-.8 1.8-1.8-.8-1.8-1.8-1.8zm-8 0c-1 0-1.8.8-1.8 1.8s.8 1.8 1.8 1.8 1.8-.8 1.8-1.8-.8-1.8-1.8-1.8zm-7.8 0c-1 0-1.8.8-1.8 1.8s.8 1.8 1.8 1.8 1.8-.8 1.8-1.8-.8-1.8-1.8-1.8z" fill="#037dae"/><path d="m527.8 238.5-33.7-35.1v11.5l33.3 36.1z" fill="#fff" stroke="#037dae" stroke-miterlimit="10" stroke-width="2"/><circle cx="494.9" cy="208.7" fill="#fff" r="11" stroke="#037dae" stroke-miterlimit="10" stroke-width="2"/><path d="m1034 366.5 33.7-35.1v11.6l-33.3 36.1z" fill="#fff" stroke="#037dae" stroke-miterlimit="10" stroke-width="2"/><circle cx="1066.9" cy="336.7" fill="#fff" r="11" stroke="#037dae" stroke-miterlimit="10" stroke-width="2"/><path d="m387.2 274 10.1 14.2-10.1 14.2m10-14.2h-28.9" fill="none" stroke="#415364" stroke-miterlimit="10" stroke-width="2"/><path d="m1177.2 274 10.1 14.2-10.1 14.2m10.1-14.2h-28.9" fill="none" stroke="#415364" stroke-miterlimit="10" stroke-width="2"/><path d="m641.2 84.9h36.3c6.6 0 12 8.4 12 18.6" fill="none" stroke="#037dae" stroke-miterlimit="10" stroke-width="2"/><path d="m574.2 103.5c0-10.3 5.4-18.6 12-18.6h37.3" fill="none" stroke="#037dae" stroke-miterlimit="10" stroke-width="2"/><path d="m630.4 93.2.7 2.6h2l.8-2.6 1.7-.5 2.1 1.7 1.7-1.2-.9-2.5 1-1.4 2.7.1.6-1.9-2.2-1.5v-1.8l2.2-1.5-.6-1.9-2.7.1-1-1.4.9-2.5-1.6-1.2-2.1 1.6-1.7-.6-.7-2.6h-2l-.8 2.6-1.7.5-2.1-1.7-1.7 1.2.9 2.5-1 1.4-2.7-.1-.6 1.9 2.2 1.5v1.8l-2.2 1.5.6 2 2.7-.1 1 1.4-.9 2.5 1.6 1.2 2.1-1.6zm-.1-9c.3-1 1.5-1.6 2.5-1.3s1.6 1.5 1.2 2.5c-.3 1-1.5 1.6-2.5 1.3s-1.5-1.4-1.2-2.5z" fill="none" stroke="#037dae" stroke-miterlimit="10" stroke-width="1.5"/><path d="m931.2 84.5h36.3c6.6 0 12 8.4 12 18.6" fill="none" stroke="#037dae" stroke-miterlimit="10" stroke-width="2"/><path d="m864.3 103.1c0-10.3 5.4-18.6 12-18.6h37.3" fill="none" stroke="#037dae" stroke-miterlimit="10" stroke-width="2"/><path d="m920.4 92.8.7 2.6h2l.8-2.6 1.7-.5 2.1 1.7 1.7-1.2-.9-2.5 1-1.4 2.7.1.6-1.9-2.2-1.5v-1.8l2.2-1.5-.6-1.9-2.7.1-1-1.4.9-2.5-1.6-1.2-2.1 1.6-1.7-.6-.7-2.6h-2l-.8 2.6-1.7.5-2.1-1.7-1.7 1.2.9 2.5-1 1.4-2.7-.1-.6 1.9 2.2 1.5v1.8l-2.2 1.5.6 2 2.7-.1 1 1.4-.9 2.5 1.6 1.2 2.1-1.6zm0-9c.3-1 1.5-1.6 2.5-1.3s1.6 1.5 1.2 2.5c-.3 1-1.5 1.6-2.5 1.3s-1.6-1.4-1.2-2.5z" fill="none" stroke="#037dae" stroke-miterlimit="10" stroke-width="1.5"/><path d="m623.7 210.7c3.1 0 5.5 2.5 5.5 5.5 0 .8-.2 1.5-.4 2.2" fill="none" stroke="#037dae" stroke-miterlimit="10" stroke-width="2"/><path d="m619.2 218.5c-.6-.9-1-1.1-1-2.3 0-3.1 2.5-5.5 5.5-5.5" fill="none" stroke="#037dae" stroke-miterlimit="10" stroke-width="2"/><path d="m623.7 180.8v29.9" fill="none" stroke="#037dae" stroke-miterlimit="10" stroke-width="2"/><path d="m645.9 218.3c0-.6-.5-1-1-1h-43.2c-.6 0-1 .5-1 1v30.7c0 .6.5 1 1 1h43.1c.6 0 1-.5 1-1zm-43.2 29.6v-4.7h8.6c.4 1 1.4 1.7 2.6 1.7 1.5 0 2.8-1.2 2.8-2.8 0-1.5-1.2-2.8-2.8-2.8-1.2 0-2.2.7-2.6 1.7h-8.6v-2.3h16l2.6 2.6c-.2.3-.2.7-.2 1.1 0 1.5 1.2 2.8 2.8 2.8 1.5 0 2.8-1.2 2.8-2.8 0-1.5-1.2-2.8-2.8-2.8-.4 0-.7.1-1 .2l-3-3c-.2-.2-.5-.3-.7-.3h-16.4v-2.1h28.7c.4 1 1.4 1.7 2.6 1.7 1.5 0 2.8-1.2 2.8-2.8 0-1.5-1.2-2.8-2.8-2.8-1.2 0-2.2.7-2.6 1.7h-28.7v-2.1h7.2c.3 0 .5-.1.7-.3l3-3c.3.1.7.2 1 .2 1.5 0 2.8-1.2 2.8-2.8 0-1.5-1.2-2.8-2.8-2.8-1.5 0-2.8 1.2-2.8 2.8 0 .4.1.8.2 1.1l-2.6 2.6h-6.8v-9.1h41.1v2.6h-16.2c-.3 0-.5.1-.7.3l-3 3c-.3-.1-.7-.2-1-.2-1.5 0-2.8 1.2-2.8 2.8 0 1.5 1.2 2.8 2.8 2.8 1.5 0 2.8-1.2 2.8-2.8 0-.4-.1-.8-.2-1.1l2.6-2.6h15.7v17.5h-8.3c-.4-1-1.4-1.7-2.6-1.7-1.5 0-2.8 1.2-2.8 2.8 0 1.5 1.2 2.8 2.8 2.8 1.2 0 2.2-.7 2.6-1.7h8.3v4.3h-41.1zm10.5-5.7c0-.4.3-.7.7-.7s.7.3.7.7-.3.7-.7.7-.7-.3-.7-.7zm10.7-.3c.4 0 .7.3.7.7s-.3.7-.7.7-.7-.3-.7-.7.3-.7.7-.7zm9.3-8.2c0-.4.3-.7.7-.7s.7.3.7.7-.3.7-.7.7c-.3 0-.7-.4-.7-.7zm-19.3-9c0-.4.3-.7.7-.7s.7.3.7.7-.3.7-.7.7-.7-.3-.7-.7zm9.7 3.1c0 .4-.3.7-.7.7s-.7-.3-.7-.7.3-.7.7-.7c.3 0 .7.3.7.7zm10 14.8c0 .4-.3.7-.7.7s-.7-.3-.7-.7.3-.7.7-.7.7.3.7.7z" fill="#415364" stroke="#b9dbe5" stroke-miterlimit="10" stroke-width=".25"/><path d="m588.4 180.3v-45.3h8.5l-.2 45.5z" fill="#fff"/><path d="m595.9 136-.2 43.4-6.4-.2v-43.3h6.6m2-1.9h-10.5v47.2l10.4.3z" fill="#037dae"/><path d="m582.9 143.4v35.9h-2.6-3v-35.9zm2-2h-9.7v39.9h5 4.6v-39.9z" fill="#037dae"/><path d="m563.2 149h8.4v31.3l-8.2.2z" fill="#fff"/><path d="m570.6 150v29.4l-6.3.1-.2-29.5zm2-2h-10.4l.2 33.6 10.3-.2z" fill="#037dae"/><path d="m608.5 166.7v12.6l-6.3.1-.1-12.7zm2-2h-10.4l.2 16.8 10.3-.2z" fill="#037dae"/><path d="m1002.7 367.2c.5 0 .8.4.8.8s-.4.8-.8.8-.8-.4-.8-.8.3-.8.8-.8m-7.8 0c.5 0 .8.4.8.8s-.4.8-.8.8-.8-.4-.8-.8.3-.8.8-.8m-8 0c.5 0 .8.4.8.8s-.4.8-.8.8-.8-.4-.8-.8.3-.8.8-.8m15.8-1c-1 0-1.8.8-1.8 1.8s.8 1.8 1.8 1.8 1.8-.8 1.8-1.8c0-.9-.8-1.8-1.8-1.8zm-7.8 0c-1 0-1.8.8-1.8 1.8s.8 1.8 1.8 1.8 1.8-.8 1.8-1.8c0-.9-.8-1.8-1.8-1.8zm-8 0c-1 0-1.8.8-1.8 1.8s.8 1.8 1.8 1.8 1.8-.8 1.8-1.8c.1-.9-.8-1.8-1.8-1.8z" fill="#037dae"/><path d="m945.6 367.2c.5 0 .8.4.8.8s-.4.8-.8.8-.8-.4-.8-.8.3-.8.8-.8m-7.8 0c.5 0 .8.4.8.8s-.4.8-.8.8-.8-.4-.8-.8.4-.8.8-.8m-8 0c.5 0 .8.4.8.8s-.4.8-.8.8-.8-.4-.8-.8.4-.8.8-.8m15.8-1c-1 0-1.8.8-1.8 1.8s.8 1.8 1.8 1.8 1.8-.8 1.8-1.8c.1-.9-.8-1.8-1.8-1.8zm-7.8 0c-1 0-1.8.8-1.8 1.8s.8 1.8 1.8 1.8 1.8-.8 1.8-1.8c.1-.9-.7-1.8-1.8-1.8zm-8 0c-1 0-1.8.8-1.8 1.8s.8 1.8 1.8 1.8 1.8-.8 1.8-1.8c.1-.9-.7-1.8-1.8-1.8z" fill="#037dae"/><circle cx="972.2" cy="264.2" fill="#fff" r="9.6" stroke="#415364" stroke-miterlimit="10" stroke-width=".5"/><path d="m969.2 274.1c-5.5-1.7-8.5-7.4-6.9-12.9.8-2.6 2.6-4.8 5-6.1s5.2-1.6 7.9-.8c2.6.8 4.8 2.6 6.1 5s1.6 5.2.8 7.9c-.8 2.6-2.6 4.8-5 6.1-1.5.8-3.2 1.2-4.9 1.2-1 0-2-.1-3-.4zm-1.2-17.8c-2.1 1.1-3.6 3-4.3 5.3-1.4 4.7 1.2 9.7 6 11.1 2.3.7 4.7.5 6.8-.7 2.1-1.1 3.6-3 4.3-5.3s.5-4.7-.7-6.8c-1.1-2.1-3-3.6-5.3-4.3-.9-.3-1.7-.4-2.6-.4-1.4 0-2.9.4-4.2 1.1z" fill="#415364" stroke="#415364" stroke-miterlimit="10" stroke-width=".5"/><path d="m971.5 317.7h10.1v37.6h-10.1z" fill="#fff"/><path d="m970.6 317h12v39h-12zm10 1.4h-8.2v36.1h8.2z" fill="#415364"/><path d="m945.6 270.8c-1.1-.3-1.7-1.5-2.2-2.6-.8-1.7-1.5-3.3-2.3-5-.5-1.1-1.3-2.4-2.4-2.3s-1.6 1.4-1.8 2.5c-.3 1.6-.3 3.3-1.2 4.6-.6.7-1.4 1.3-1.5 2.3-.2 1.3 1.2 2.2 2.4 2.6 2.4.8 4.9 1.2 7.5 1" fill="#fff" stroke="#415364" stroke-miterlimit="10" stroke-width="2"/><path d="m955.1 263.8h8v39.1h-8z" fill="#fff" stroke="#037dae" stroke-miterlimit="10" stroke-width="2" transform="matrix(.5676 -.8233 .8233 .5676 181.3938 912.1653)"/><path d="m967.7 317h17.3c1.8 0 3.2-1.5 3.2-3.2v-36h-20.6c-1.8 0-3.2 1.5-3.2 3.2v32.8c0 1.7 1.5 3.2 3.3 3.2z" fill="#fff" stroke="#037dae" stroke-miterlimit="10" stroke-width="2"/><path d="m982 281.7 15.9 10.6-11.1 20.7-8-4.7 6.4-11.1-9.1-6.5" fill="#fff" stroke="#037dae" stroke-miterlimit="10" stroke-width="1.5"/><path d="m989.5 307.9-7.8-4.6" fill="none" stroke="#037dae" stroke-miterlimit="10" stroke-width="1.5"/><circle cx="988.6" cy="303.8" fill="#415364" r=".9"/><path d="m964.6 283.3h6.9l-3.4 3.6 1.4 12.5-4.9 5.7z" fill="#fafbfc" stroke="#415364" stroke-miterlimit="10" stroke-width="1.5"/><path d="m975.4 239.6h7.8v7.8h-7.8z" fill="#fff" stroke="#415364" stroke-miterlimit="10" stroke-width="1.7" transform="matrix(.7071 -.7071 .7071 .7071 114.6861 763.7931)"/><path d="m945.5 220.5h7.8v7.8h-7.8z" fill="#fff" stroke="#415364" stroke-miterlimit="10" stroke-width="1.7" transform="matrix(.7071 -.7071 .7071 .7071 119.3908 737.0355)"/><path d="m718.6 504.9-.1-8h37.4v8" fill="none" stroke="#037dae" stroke-miterlimit="10" stroke-width="2"/><path d="m805.6 503.6-.1-8.1h37.4v8.1" fill="none" stroke="#037dae" stroke-miterlimit="10" stroke-width="2"/><path d="m751.9 415.7.1 8.1h-37.4v-8.1" fill="#fff" stroke="#037dae" stroke-miterlimit="10" stroke-width="2"/><path d="m846.8 415.7.1 8.1h-37.4v-8.1" fill="#fff" stroke="#037dae" stroke-miterlimit="10" stroke-width="2"/><path d="m650.1 178.3c1.2 0 2.3 1 2.3 2.3s-1 2.3-2.3 2.3c-1.2 0-2.3-1-2.3-2.3s1.1-2.3 2.3-2.3m0-2c-2.4 0-4.3 1.9-4.3 4.3s1.9 4.3 4.3 4.3 4.3-1.9 4.3-4.3-1.9-4.3-4.3-4.3z" fill="#037dae"/><path d="m965.3 354.6h16.6v5.3h-16.6z" fill="#fff" stroke="#037dae" stroke-miterlimit="10" stroke-width="1.7"/><path d="m539.4 358.5h106.7" fill="none" stroke="#415364" stroke-miterlimit="10" stroke-width="1.5"/><path d="m539.6 373.4h106.6" fill="none" stroke="#415364" stroke-miterlimit="10" stroke-width="1.5"/><path d="m646.1 373.7c-4.3 0-7.8-3.5-7.8-7.8 0-2.1.8-4 2.3-5.5s3.4-2.3 5.5-2.3c4.3 0 7.8 3.5 7.8 7.8 0 2.1-.8 4-2.3 5.5s-3.4 2.3-5.5 2.3z" fill="#fff"/><path d="m646.1 357.6v1-1 1c4 0 7.3 3.3 7.3 7.3s-3.2 7.3-7.3 7.3c-4 0-7.3-3.3-7.3-7.3 0-1.9.7-3.8 2.1-5.2s3.2-2.2 5.1-2.2zm0 0c-4.6 0-8.3 3.8-8.3 8.3 0 4.6 3.7 8.2 8.3 8.2s8.3-3.8 8.2-8.3c.1-4.5-3.6-8.2-8.2-8.2z" fill="#037dae"/><path d="m646.1 361.8v1c1.7 0 3.2 1.4 3.2 3.2 0 .8-.3 1.6-.9 2.2s-1.4.9-2.3.9c-1.7 0-3.2-1.4-3.2-3.2 0-.8.3-1.6.9-2.2s1.4-.9 2.2-.9zm0 0c-2.3 0-4.2 1.9-4.2 4.2s1.9 4.1 4.2 4.1 4.2-1.9 4.1-4.2c.1-2.3-1.8-4.1-4.1-4.1z" fill="#415364"/><path d="m591.9 373.7c-4.3 0-7.8-3.5-7.8-7.8s3.5-7.8 7.8-7.8 7.8 3.5 7.8 7.8c0 2.1-.8 4-2.3 5.5-1.4 1.5-3.4 2.3-5.5 2.3z" fill="#fff"/><path d="m591.9 357.6v1-1 1c4 0 7.3 3.3 7.3 7.3s-3.2 7.3-7.3 7.3c-4 0-7.3-3.3-7.3-7.3 0-1.9.7-3.8 2.1-5.2s3.2-2.2 5.1-2.2zm0 0c-4.6 0-8.3 3.8-8.3 8.3 0 4.6 3.7 8.2 8.3 8.2s8.3-3.8 8.2-8.3c.1-4.5-3.6-8.2-8.2-8.2z" fill="#037dae"/><path d="m591.9 361.8v1c1.7 0 3.2 1.4 3.2 3.2 0 .8-.3 1.6-.9 2.2s-1.4.9-2.3.9c-1.7 0-3.2-1.4-3.2-3.2 0-.8.3-1.6.9-2.2s1.4-.9 2.2-.9zm0 0c-2.3 0-4.2 1.9-4.2 4.2s1.9 4.1 4.2 4.1 4.2-1.9 4.1-4.2c.1-2.3-1.8-4.1-4.1-4.1z" fill="#415364"/><path d="m910.9 360.4h106.6" fill="none" stroke="#415364" stroke-miterlimit="10" stroke-width="1.5"/><path d="m911 375.3h106.7" fill="none" stroke="#415364" stroke-miterlimit="10" stroke-width="1.5"/><circle cx="913.4" cy="367.8" fill="#fff" r="7.9"/><path d="m913.4 360.4c4.1 0 7.4 3.3 7.4 7.4s-3.3 7.4-7.4 7.4-7.4-3.3-7.4-7.4 3.3-7.4 7.4-7.4m0-1c-4.6 0-8.4 3.8-8.4 8.4s3.8 8.4 8.4 8.4 8.4-3.8 8.4-8.4-3.7-8.4-8.4-8.4z" fill="#037dae"/><path d="m913.4 363.4v1c1.9 0 3.4 1.5 3.4 3.4s-1.5 3.4-3.4 3.4-3.4-1.5-3.4-3.4 1.5-3.4 3.4-3.4zm0 0c-2.4 0-4.4 2-4.4 4.4s2 4.4 4.4 4.4 4.4-2 4.4-4.4-1.9-4.4-4.4-4.4z" fill="#415364"/><path d="m965.2 375.9c-2.1 0-4-.8-5.5-2.3s-2.3-3.4-2.3-5.5c0-4.3 3.5-7.8 7.8-7.8s7.8 3.5 7.8 7.8c.1 4.3-3.4 7.8-7.8 7.8z" fill="#fff"/><path d="m965.3 359.8v1c1.9 0 3.8.8 5.1 2.2 1.4 1.4 2.1 3.2 2.1 5.2 0 4-3.3 7.3-7.3 7.3s-7.3-3.3-7.3-7.3 3.3-7.3 7.3-7.3v-1.1m.1 0c-4.6 0-8.3 3.7-8.3 8.2 0 4.6 3.7 8.3 8.2 8.3 4.6 0 8.3-3.7 8.3-8.2.1-4.6-3.6-8.3-8.2-8.3z" fill="#037dae"/><path d="m965.3 363.9v1c1.7 0 3.2 1.4 3.2 3.2 0 1.7-1.4 3.2-3.2 3.2-.8 0-1.6-.3-2.2-.9s-.9-1.4-.9-2.2c0-1.7 1.4-3.2 3.2-3.2zm0 0c-2.3 0-4.2 1.9-4.2 4.1 0 2.3 1.8 4.2 4.1 4.2s4.2-1.9 4.2-4.1c.1-2.3-1.8-4.2-4.1-4.2z" fill="#415364"/></svg>