<svg width="800" height="600" viewBox="0 0 800 600" fill="none" xmlns="http://www.w3.org/2000/svg">
  <rect width="800" height="600" fill="#111318"/>
  <rect x="20" y="20" width="760" height="560" rx="12" fill="#1A1D23" stroke="#374151" stroke-width="1"/>
  
  <!-- Header -->
  <rect x="40" y="40" width="720" height="60" rx="8" fill="#27272A"/>
  <rect x="60" y="60" width="120" height="20" rx="4" fill="#6366F1"/>
  <rect x="200" y="60" width="80" height="20" rx="4" fill="#4B5563"/>
  <rect x="300" y="60" width="60" height="20" rx="4" fill="#4B5563"/>
  
  <!-- Chart Area -->
  <rect x="40" y="120" width="720" height="300" rx="8" fill="#0A0B0F"/>
  <rect x="60" y="140" width="680" height="260" rx="4" fill="#1A1D23"/>
  
  <!-- Chart Lines -->
  <path d="M80 200 L120 180 L160 190 L200 160 L240 170 L280 150 L320 140 L360 130 L400 120 L440 110 L480 100 L520 90 L560 80 L600 70 L640 60 L680 50" stroke="#6366F1" stroke-width="3" fill="none"/>
  <path d="M80 250 L120 240 L160 230 L200 220 L240 210 L280 200 L320 190 L360 180 L400 170 L440 160 L480 150 L520 140 L560 130 L600 120 L640 110 L680 100" stroke="#8B5CF6" stroke-width="2" fill="none"/>
  
  <!-- Grid Lines -->
  <line x1="60" y1="180" x2="740" y2="180" stroke="#374151" stroke-width="1" opacity="0.3"/>
  <line x1="60" y1="220" x2="740" y2="220" stroke="#374151" stroke-width="1" opacity="0.3"/>
  <line x1="60" y1="260" x2="740" y2="260" stroke="#374151" stroke-width="1" opacity="0.3"/>
  <line x1="60" y1="300" x2="740" y2="300" stroke="#374151" stroke-width="1" opacity="0.3"/>
  
  <!-- Side Panel -->
  <rect x="40" y="440" width="200" height="120" rx="8" fill="#1A1D23" stroke="#374151" stroke-width="1"/>
  <rect x="60" y="460" width="160" height="20" rx="4" fill="#10B981"/>
  <rect x="60" y="490" width="120" height="15" rx="3" fill="#4B5563"/>
  <rect x="60" y="510" width="100" height="15" rx="3" fill="#4B5563"/>
  <rect x="60" y="530" width="80" height="15" rx="3" fill="#4B5563"/>
  
  <!-- Right Panel -->
  <rect x="260" y="440" width="200" height="120" rx="8" fill="#1A1D23" stroke="#374151" stroke-width="1"/>
  <rect x="280" y="460" width="160" height="20" rx="4" fill="#F59E0B"/>
  <rect x="280" y="490" width="140" height="15" rx="3" fill="#4B5563"/>
  <rect x="280" y="510" width="120" height="15" rx="3" fill="#4B5563"/>
  <rect x="280" y="530" width="100" height="15" rx="3" fill="#4B5563"/>
  
  <!-- Bottom Panel -->
  <rect x="480" y="440" width="280" height="120" rx="8" fill="#1A1D23" stroke="#374151" stroke-width="1"/>
  <rect x="500" y="460" width="240" height="20" rx="4" fill="#EF4444"/>
  <rect x="500" y="490" width="200" height="15" rx="3" fill="#4B5563"/>
  <rect x="500" y="510" width="180" height="15" rx="3" fill="#4B5563"/>
  <rect x="500" y="530" width="160" height="15" rx="3" fill="#4B5563"/>
  
  <!-- Floating Elements -->
  <circle cx="700" cy="100" r="8" fill="#6366F1" opacity="0.8"/>
  <circle cx="720" cy="120" r="6" fill="#8B5CF6" opacity="0.6"/>
  <circle cx="680" cy="140" r="4" fill="#10B981" opacity="0.7"/>
</svg>
