<svg width="800" height="600" viewBox="0 0 800 600" fill="none" xmlns="http://www.w3.org/2000/svg">
  <rect width="800" height="600" fill="#0A0B0F"/>
  <rect x="20" y="20" width="760" height="560" rx="12" fill="#111318" stroke="#374151" stroke-width="1"/>
  
  <!-- Header -->
  <rect x="40" y="40" width="720" height="80" rx="8" fill="#1A1D23"/>
  <rect x="60" y="60" width="150" height="25" rx="6" fill="#6366F1"/>
  <rect x="230" y="60" width="100" height="25" rx="6" fill="#4B5563"/>
  <rect x="350" y="60" width="80" height="25" rx="6" fill="#4B5563"/>
  <rect x="450" y="60" width="60" height="25" rx="6" fill="#4B5563"/>
  
  <!-- Main Chart -->
  <rect x="40" y="140" width="500" height="300" rx="8" fill="#0A0B0F"/>
  <rect x="60" y="160" width="460" height="260" rx="4" fill="#1A1D23"/>
  
  <!-- Candlestick Chart -->
  <rect x="80" y="200" width="4" height="40" fill="#10B981"/>
  <rect x="100" y="180" width="4" height="60" fill="#EF4444"/>
  <rect x="120" y="190" width="4" height="50" fill="#10B981"/>
  <rect x="140" y="170" width="4" height="70" fill="#EF4444"/>
  <rect x="160" y="160" width="4" height="80" fill="#10B981"/>
  <rect x="180" y="150" width="4" height="90" fill="#10B981"/>
  <rect x="200" y="140" width="4" height="100" fill="#10B981"/>
  <rect x="220" y="130" width="4" height="110" fill="#10B981"/>
  <rect x="240" y="120" width="4" height="120" fill="#10B981"/>
  <rect x="260" y="110" width="4" height="130" fill="#10B981"/>
  <rect x="280" y="100" width="4" height="140" fill="#10B981"/>
  <rect x="300" y="90" width="4" height="150" fill="#10B981"/>
  <rect x="320" y="80" width="4" height="160" fill="#10B981"/>
  <rect x="340" y="70" width="4" height="170" fill="#10B981"/>
  <rect x="360" y="60" width="4" height="180" fill="#10B981"/>
  <rect x="380" y="50" width="4" height="190" fill="#10B981"/>
  <rect x="400" y="40" width="4" height="200" fill="#10B981"/>
  <rect x="420" y="30" width="4" height="210" fill="#10B981"/>
  <rect x="440" y="20" width="4" height="220" fill="#10B981"/>
  <rect x="460" y="10" width="4" height="230" fill="#10B981"/>
  <rect x="480" y="0" width="4" height="240" fill="#10B981"/>
  
  <!-- Price Line -->
  <path d="M80 240 L120 220 L160 200 L200 180 L240 160 L280 140 L320 120 L360 100 L400 80 L440 60 L480 40" stroke="#6366F1" stroke-width="3" fill="none"/>
  
  <!-- Side Panel -->
  <rect x="560" y="140" width="200" height="300" rx="8" fill="#1A1D23"/>
  
  <!-- Order Book -->
  <rect x="580" y="160" width="160" height="30" rx="4" fill="#27272A"/>
  <text x="590" y="180" fill="#FFFFFF" font-family="monospace" font-size="12">Order Book</text>
  
  <rect x="580" y="200" width="160" height="20" rx="2" fill="#EF4444" opacity="0.3"/>
  <text x="590" y="215" fill="#EF4444" font-family="monospace" font-size="10">Sell 100.50</text>
  <text x="700" y="215" fill="#EF4444" font-family="monospace" font-size="10">100</text>
  
  <rect x="580" y="225" width="160" height="20" rx="2" fill="#EF4444" opacity="0.2"/>
  <text x="590" y="240" fill="#EF4444" font-family="monospace" font-size="10">Sell 100.45</text>
  <text x="700" y="240" fill="#EF4444" font-family="monospace" font-size="10">250</text>
  
  <rect x="580" y="250" width="160" height="20" rx="2" fill="#EF4444" opacity="0.1"/>
  <text x="590" y="265" fill="#EF4444" font-family="monospace" font-size="10">Sell 100.40</text>
  <text x="700" y="265" fill="#EF4444" font-family="monospace" font-size="10">150</text>
  
  <rect x="580" y="275" width="160" height="20" rx="2" fill="#10B981" opacity="0.1"/>
  <text x="590" y="290" fill="#10B981" font-family="monospace" font-size="10">Buy 100.35</text>
  <text x="700" y="290" fill="#10B981" font-family="monospace" font-size="10">200</text>
  
  <rect x="580" y="300" width="160" height="20" rx="2" fill="#10B981" opacity="0.2"/>
  <text x="590" y="315" fill="#10B981" font-family="monospace" font-size="10">Buy 100.30</text>
  <text x="700" y="315" fill="#10B981" font-family="monospace" font-size="10">300</text>
  
  <rect x="580" y="325" width="160" height="20" rx="2" fill="#10B981" opacity="0.3"/>
  <text x="590" y="340" fill="#10B981" font-family="monospace" font-size="10">Buy 100.25</text>
  <text x="700" y="340" fill="#10B981" font-family="monospace" font-size="10">180</text>
  
  <!-- Bottom Panel -->
  <rect x="40" y="460" width="720" height="100" rx="8" fill="#1A1D23"/>
  
  <!-- Portfolio Summary -->
  <rect x="60" y="480" width="200" height="60" rx="4" fill="#27272A"/>
  <text x="70" y="500" fill="#FFFFFF" font-family="monospace" font-size="12">Portfolio Value</text>
  <text x="70" y="520" fill="#10B981" font-family="monospace" font-size="16" font-weight="bold">$125,430.50</text>
  <text x="70" y="535" fill="#10B981" font-family="monospace" font-size="10">+2.45% (+$3,000)</text>
  
  <rect x="280" y="480" width="200" height="60" rx="4" fill="#27272A"/>
  <text x="290" y="500" fill="#FFFFFF" font-family="monospace" font-size="12">Today's P&L</text>
  <text x="290" y="520" fill="#10B981" font-family="monospace" font-size="16" font-weight="bold">+$1,250.75</text>
  <text x="290" y="535" fill="#10B981" font-family="monospace" font-size="10">+1.02%</text>
  
  <rect x="500" y="480" width="200" height="60" rx="4" fill="#27272A"/>
  <text x="510" y="500" fill="#FFFFFF" font-family="monospace" font-size="12">Open Positions</text>
  <text x="510" y="520" fill="#FFFFFF" font-family="monospace" font-size="16" font-weight="bold">12</text>
  <text x="510" y="535" fill="#4B5563" font-family="monospace" font-size="10">8 Long, 4 Short</text>
</svg>
